<?xml version="1.0" encoding="utf-8"?>
<!-- Generator: Adobe Illustrator 17.0.0, SVG Export Plug-In . SVG Version: 6.00 Build 0)  -->
<!DOCTYPE svg PUBLIC "-//W3C//DTD SVG 1.1//EN" "http://www.w3.org/Graphics/SVG/1.1/DTD/svg11.dtd">
<svg version="1.1" id="Layer_1" xmlns="http://www.w3.org/2000/svg" xmlns:xlink="http://www.w3.org/1999/xlink" x="0px" y="0px"
	 width="576px" height="432px" viewBox="0 0 576 432" enable-background="new 0 0 576 432" xml:space="preserve">
<g id="figure_1">
	<g id="patch_1">
		<path fill="#FFFFFF" d="M0,0v432h576V0"/>
	</g>
	<g id="axes_1">
		<g id="patch_2">
			<path fill="#FFFFFF" d="M72,388.8h446.4V43.2H72V388.8z"/>
		</g>
		<g id="line2d_1">
			<g>
				<defs>
					<rect id="SVGID_1_" x="72" y="43.2" width="446.4" height="345.6"/>
				</defs>
				<clipPath id="SVGID_2_">
					<use xlink:href="#SVGID_1_"  overflow="visible"/>
				</clipPath>
				<path clip-path="url(#SVGID_2_)" fill="none" stroke="#0000FF" stroke-linecap="square" stroke-linejoin="round" d="
					M109.2,83.249l3.758-2.04l3.757-1.951l3.758-2.039l3.757-1.938l3.758-1.989l3.757-2.302l3.758-3.062l3.758,0.245l3.757-1.882
					l3.758-2.82l3.757-0.334l3.758-1.924l3.757-1.065l3.758-1.916l3.758-1.087l3.757-0.915l3.758,0.045l3.757-1.864l3.758-1.739
					l3.758,0.243l3.757-1.115l3.758-2.698l3.757,1.368l3.758-3.049l3.757,3.404l3.758-7.586l3.758,3.83l3.757,0.641l3.758,1.49
					l3.757,1.477l3.758-4.545l3.757,0.921l3.758,0.186l3.758-0.271l3.757-0.63l3.758,3.128l3.757,1.402L251.988,46l3.757,6.192
					l3.758-0.649l3.758,1.138l3.757-2.097l3.758,3.261l3.757,0.897l3.758,1.169l3.757-0.467l3.758,0.104l3.758,3.468l3.757-0.868
					l3.758,3.748l3.757,4.241l3.758-1.053l3.758,3.718l3.757,0.685l3.758,3.016l3.757,3.436l3.758-0.698l3.757,2.765l3.758-1.376
					l3.758,6.037l3.757-0.78l3.758,10.891l3.757-8.067l3.758,9.998l3.757,4.175l3.758,7.266l3.758-0.826l3.757-10.911l3.758,11.484
					l3.757,5.087l3.758,7.999l3.757-3.32l3.758,23.89l3.758-11.969l3.757,5.508l3.758,9.747l3.757-0.735l3.758,16.729l3.757,13.425
					l3.758-0.794l3.758,15.753l3.757,9.969l3.758,6.079l3.757,7.816l3.758,7.312l3.758,19.245l3.757,11.811l3.758,3.811
					l3.757,32.908l3.758,4.217l3.757,31.413l3.758,14.021l3.758,32.826l3.757,20.154"/>
			</g>
		</g>
		<g id="matplotlib.axis_1">
			<g id="xtick_1">
				<g id="line2d_2">
					<g>
						<g>
							<path id="m93b0483c22" stroke="#000000" stroke-width="0.5" stroke-linejoin="round" d="M105.442,388.8v-4"/>
						</g>
					</g>
				</g>
				<g id="line2d_3">
					<g>
						<g>
							<path id="m741efc42ff" stroke="#000000" stroke-width="0.5" stroke-linejoin="round" d="M105.442,43.2v4"/>
						</g>
					</g>
				</g>
				<g id="text_1">
					<g transform="translate(96.6946117424 401.918125)scale(0.12 -0.12)">
						<g>
							<path id="BitstreamVeraSans-Roman-30" d="M31.781,66.406c-5.073,0-8.891-2.5-11.453-7.5c-2.552-4.99-3.828-12.5-3.828-22.531
								c0-9.99,1.276-17.484,3.828-22.484c2.563-5,6.38-7.5,11.453-7.5c5.115,0,8.948,2.5,11.5,7.5
								c2.563,5,3.844,12.495,3.844,22.484c0,10.031-1.281,17.542-3.844,22.531C40.729,63.906,36.896,66.406,31.781,66.406
								 M31.781,74.219c8.177,0,14.422-3.234,18.734-9.703c4.313-6.458,6.469-15.839,6.469-28.141
								c0-12.271-2.156-21.641-6.469-28.109c-4.312-6.458-10.557-9.688-18.734-9.688c-8.167,0-14.406,3.229-18.719,9.688
								C8.75,14.734,6.594,24.104,6.594,36.375c0,12.302,2.156,21.682,6.469,28.141C17.375,70.984,23.615,74.219,31.781,74.219"/>
						</g>
						<g>
							<path id="BitstreamVeraSans-Roman-2e" d="M74.311,12.406h10.312V0H74.311V12.406z"/>
						</g>
						<g>
							<path id="BitstreamVeraSans-Roman-30_1_" d="M127.191,66.406c-5.073,0-8.891-2.5-11.453-7.5
								c-2.552-4.99-3.828-12.5-3.828-22.531c0-9.99,1.276-17.484,3.828-22.484c2.563-5,6.38-7.5,11.453-7.5
								c5.115,0,8.948,2.5,11.5,7.5c2.563,5,3.844,12.495,3.844,22.484c0,10.031-1.281,17.542-3.844,22.531
								C136.139,63.906,132.306,66.406,127.191,66.406 M127.191,74.219c8.177,0,14.422-3.234,18.734-9.703
								c4.313-6.458,6.469-15.839,6.469-28.141c0-12.271-2.156-21.641-6.469-28.109c-4.312-6.458-10.557-9.688-18.734-9.688
								c-8.167,0-14.406,3.229-18.719,9.688c-4.312,6.469-6.469,15.839-6.469,28.109c0,12.302,2.156,21.682,6.469,28.141
								C112.785,70.984,119.025,74.219,127.191,74.219"/>
						</g>
					</g>
				</g>
			</g>
			<g id="xtick_2">
				<g id="line2d_4">
					<g>
						<g>
							<path id="m93b0483c22_1_" stroke="#000000" stroke-width="0.5" stroke-linejoin="round" d="M180.594,388.8v-4"/>
						</g>
					</g>
				</g>
				<g id="line2d_5">
					<g>
						<g>
							<path id="m741efc42ff_1_" stroke="#000000" stroke-width="0.5" stroke-linejoin="round" d="M180.594,43.2v4"/>
						</g>
					</g>
				</g>
				<g id="text_2">
					<g transform="translate(172.048626894 401.918125)scale(0.12 -0.12)">
						<g>
							<path id="BitstreamVeraSans-Roman-30_2_" d="M31.781,66.406c-5.073,0-8.891-2.5-11.453-7.5
								c-2.552-4.99-3.828-12.5-3.828-22.531c0-9.99,1.276-17.484,3.828-22.484c2.563-5,6.38-7.5,11.453-7.5
								c5.115,0,8.948,2.5,11.5,7.5c2.563,5,3.844,12.495,3.844,22.484c0,10.031-1.281,17.542-3.844,22.531
								C40.729,63.906,36.896,66.406,31.781,66.406 M31.781,74.219c8.177,0,14.422-3.234,18.734-9.703
								c4.313-6.458,6.469-15.839,6.469-28.141c0-12.271-2.156-21.641-6.469-28.109c-4.312-6.458-10.557-9.688-18.734-9.688
								c-8.167,0-14.406,3.229-18.719,9.688C8.75,14.734,6.594,24.104,6.594,36.375c0,12.302,2.156,21.682,6.469,28.141
								C17.375,70.984,23.615,74.219,31.781,74.219"/>
						</g>
						<g>
							<path id="BitstreamVeraSans-Roman-2e_1_" d="M74.311,12.406h10.312V0H74.311V12.406z"/>
						</g>
						<g>
							<path id="BitstreamVeraSans-Roman-32" d="M114.598,8.297h34.422V0h-46.281v8.297c3.74,3.875,8.839,9.073,15.297,15.594
								c6.469,6.531,10.531,10.745,12.188,12.641c3.156,3.542,5.359,6.542,6.609,9c1.26,2.458,1.891,4.875,1.891,7.25
								c0,3.875-1.359,7.031-4.078,9.469c-2.719,2.448-6.26,3.672-10.625,3.672c-3.094,0-6.359-0.536-9.797-1.609
								c-3.427-1.073-7.094-2.703-11-4.891v9.969c3.969,1.594,7.677,2.797,11.125,3.609c3.458,0.813,6.62,1.219,9.484,1.219
								c7.552,0,13.573-1.891,18.062-5.672c4.49-3.771,6.734-8.813,6.734-15.125c0-3-0.563-5.844-1.688-8.531
								c-1.115-2.677-3.156-5.839-6.125-9.484c-0.812-0.948-3.401-3.677-7.766-8.187C128.697,22.708,122.546,16.401,114.598,8.297"
								/>
						</g>
					</g>
				</g>
			</g>
			<g id="xtick_3">
				<g id="line2d_6">
					<g>
						<g>
							<path id="m93b0483c22_2_" stroke="#000000" stroke-width="0.5" stroke-linejoin="round" d="M255.745,388.8v-4"/>
						</g>
					</g>
				</g>
				<g id="line2d_7">
					<g>
						<g>
							<path id="m741efc42ff_2_" stroke="#000000" stroke-width="0.5" stroke-linejoin="round" d="M255.745,43.2v4"/>
						</g>
					</g>
				</g>
				<g id="text_3">
					<g transform="translate(246.935767045 401.918125)scale(0.12 -0.12)">
						<g>
							<path id="BitstreamVeraSans-Roman-30_3_" d="M31.781,66.406c-5.073,0-8.891-2.5-11.453-7.5
								c-2.552-4.99-3.828-12.5-3.828-22.531c0-9.99,1.276-17.484,3.828-22.484c2.563-5,6.38-7.5,11.453-7.5
								c5.115,0,8.948,2.5,11.5,7.5c2.563,5,3.844,12.495,3.844,22.484c0,10.031-1.281,17.542-3.844,22.531
								C40.729,63.906,36.896,66.406,31.781,66.406 M31.781,74.219c8.177,0,14.422-3.234,18.734-9.703
								c4.313-6.458,6.469-15.839,6.469-28.141c0-12.271-2.156-21.641-6.469-28.109c-4.312-6.458-10.557-9.688-18.734-9.688
								c-8.167,0-14.406,3.229-18.719,9.688C8.75,14.734,6.594,24.104,6.594,36.375c0,12.302,2.156,21.682,6.469,28.141
								C17.375,70.984,23.615,74.219,31.781,74.219"/>
						</g>
						<g>
							<path id="BitstreamVeraSans-Roman-2e_2_" d="M74.311,12.406h10.312V0H74.311V12.406z"/>
						</g>
						<g>
							<path id="BitstreamVeraSans-Roman-34" d="M133.207,64.312l-24.906-38.922h24.906V64.312z M130.613,72.906h12.406V25.391
								h10.406v-8.203H143.02V0h-9.812v17.187h-32.906v9.516L130.613,72.906z"/>
						</g>
					</g>
				</g>
			</g>
			<g id="xtick_4">
				<g id="line2d_8">
					<g>
						<g>
							<path id="m93b0483c22_3_" stroke="#000000" stroke-width="0.5" stroke-linejoin="round" d="M330.897,388.8v-4"/>
						</g>
					</g>
				</g>
				<g id="line2d_9">
					<g>
						<g>
							<path id="m741efc42ff_3_" stroke="#000000" stroke-width="0.5" stroke-linejoin="round" d="M330.897,43.2v4"/>
						</g>
					</g>
				</g>
				<g id="text_4">
					<g transform="translate(322.128532197 401.918125)scale(0.12 -0.12)">
						<g>
							<path id="BitstreamVeraSans-Roman-30_4_" d="M31.781,66.406c-5.073,0-8.891-2.5-11.453-7.5
								c-2.552-4.99-3.828-12.5-3.828-22.531c0-9.99,1.276-17.484,3.828-22.484c2.563-5,6.38-7.5,11.453-7.5
								c5.115,0,8.948,2.5,11.5,7.5c2.563,5,3.844,12.495,3.844,22.484c0,10.031-1.281,17.542-3.844,22.531
								C40.729,63.906,36.896,66.406,31.781,66.406 M31.781,74.219c8.177,0,14.422-3.234,18.734-9.703
								c4.313-6.458,6.469-15.839,6.469-28.141c0-12.271-2.156-21.641-6.469-28.109c-4.312-6.458-10.557-9.688-18.734-9.688
								c-8.167,0-14.406,3.229-18.719,9.688C8.75,14.734,6.594,24.104,6.594,36.375c0,12.302,2.156,21.682,6.469,28.141
								C17.375,70.984,23.615,74.219,31.781,74.219"/>
						</g>
						<g>
							<path id="BitstreamVeraSans-Roman-2e_3_" d="M74.311,12.406h10.312V0H74.311V12.406z"/>
						</g>
						<g>
							<path id="BitstreamVeraSans-Roman-36" d="M128.426,40.375c-4.427,0-7.937-1.516-10.531-4.547
								c-2.583-3.021-3.875-7.167-3.875-12.437c0-5.24,1.292-9.385,3.875-12.437c2.594-3.042,6.104-4.562,10.531-4.562
								c4.427,0,7.932,1.521,10.516,4.562c2.583,3.052,3.875,7.198,3.875,12.437c0,5.271-1.292,9.417-3.875,12.437
								C136.358,38.859,132.853,40.375,128.426,40.375 M148.004,71.297v-8.984c-2.479,1.167-4.979,2.057-7.5,2.672
								c-2.521,0.625-5.021,0.938-7.5,0.938c-6.51,0-11.484-2.198-14.922-6.594c-3.427-4.396-5.385-11.036-5.875-19.922
								c1.917,2.833,4.323,5.005,7.219,6.516c2.906,1.51,6.099,2.266,9.578,2.266c7.323,0,13.109-2.224,17.359-6.672
								c4.25-4.437,6.375-10.479,6.375-18.125c0-7.49-2.214-13.5-6.641-18.031c-4.427-4.521-10.318-6.781-17.672-6.781
								c-8.437,0-14.885,3.229-19.344,9.688c-4.458,6.469-6.688,15.839-6.688,28.109c0,11.521,2.734,20.708,8.203,27.562
								c5.469,6.854,12.807,10.281,22.016,10.281c2.479,0,4.979-0.245,7.5-0.734C142.634,72.995,145.264,72.266,148.004,71.297"/>
						</g>
					</g>
				</g>
			</g>
			<g id="xtick_5">
				<g id="line2d_10">
					<g>
						<g>
							<path id="m93b0483c22_4_" stroke="#000000" stroke-width="0.5" stroke-linejoin="round" d="M406.048,388.8v-4"/>
						</g>
					</g>
				</g>
				<g id="line2d_11">
					<g>
						<g>
							<path id="m741efc42ff_4_" stroke="#000000" stroke-width="0.5" stroke-linejoin="round" d="M406.048,43.2v4"/>
						</g>
					</g>
				</g>
				<g id="text_5">
					<g transform="translate(397.312859848 401.918125)scale(0.12 -0.12)">
						<g>
							<path id="BitstreamVeraSans-Roman-30_5_" d="M31.781,66.406c-5.073,0-8.891-2.5-11.453-7.5
								c-2.552-4.99-3.828-12.5-3.828-22.531c0-9.99,1.276-17.484,3.828-22.484c2.563-5,6.38-7.5,11.453-7.5
								c5.115,0,8.948,2.5,11.5,7.5c2.563,5,3.844,12.495,3.844,22.484c0,10.031-1.281,17.542-3.844,22.531
								C40.729,63.906,36.896,66.406,31.781,66.406 M31.781,74.219c8.177,0,14.422-3.234,18.734-9.703
								c4.313-6.458,6.469-15.839,6.469-28.141c0-12.271-2.156-21.641-6.469-28.109c-4.312-6.458-10.557-9.688-18.734-9.688
								c-8.167,0-14.406,3.229-18.719,9.688C8.75,14.734,6.594,24.104,6.594,36.375c0,12.302,2.156,21.682,6.469,28.141
								C17.375,70.984,23.615,74.219,31.781,74.219"/>
						</g>
						<g>
							<path id="BitstreamVeraSans-Roman-2e_4_" d="M74.311,12.406h10.312V0H74.311V12.406z"/>
						</g>
						<g>
							<path id="BitstreamVeraSans-Roman-38" d="M127.191,34.625c-4.687,0-8.375-1.255-11.062-3.766
								c-2.677-2.51-4.016-5.958-4.016-10.344c0-4.396,1.339-7.849,4.016-10.359c2.687-2.51,6.375-3.766,11.062-3.766
								c4.688,0,8.38,1.26,11.078,3.781c2.708,2.531,4.062,5.979,4.062,10.344c0,4.385-1.344,7.833-4.031,10.344
								C135.624,33.37,131.921,34.625,127.191,34.625 M117.332,38.812c-4.229,1.042-7.526,3.01-9.891,5.906
								c-2.354,2.906-3.531,6.443-3.531,10.609c0,5.823,2.073,10.427,6.219,13.812c4.156,3.385,9.844,5.078,17.062,5.078
								c7.26,0,12.958-1.693,17.094-5.078c4.135-3.385,6.203-7.99,6.203-13.812c0-4.167-1.182-7.703-3.547-10.609
								c-2.354-2.896-5.63-4.865-9.828-5.906c4.75-1.104,8.448-3.271,11.094-6.5c2.656-3.219,3.984-7.151,3.984-11.797
								c0-7.073-2.156-12.5-6.469-16.281c-4.312-3.771-10.49-5.656-18.531-5.656c-8.031,0-14.208,1.885-18.531,5.656
								c-4.312,3.781-6.469,9.208-6.469,16.281c0,4.646,1.333,8.578,4,11.797C108.868,35.542,112.582,37.708,117.332,38.812
								 M113.723,54.391c0-3.771,1.177-6.713,3.531-8.828c2.365-2.115,5.677-3.172,9.937-3.172c4.24,0,7.552,1.057,9.938,3.172
								c2.396,2.115,3.594,5.057,3.594,8.828c0,3.781-1.198,6.729-3.594,8.844c-2.385,2.115-5.698,3.172-9.938,3.172
								c-4.26,0-7.573-1.057-9.937-3.172C114.9,61.12,113.723,58.172,113.723,54.391"/>
						</g>
					</g>
				</g>
			</g>
			<g id="xtick_6">
				<g id="line2d_12">
					<g>
						<g>
							<path id="m93b0483c22_5_" stroke="#000000" stroke-width="0.5" stroke-linejoin="round" d="M481.2,388.8v-4"/>
						</g>
					</g>
				</g>
				<g id="line2d_13">
					<g>
						<g>
							<path id="m741efc42ff_5_" stroke="#000000" stroke-width="0.5" stroke-linejoin="round" d="M481.2,43.2v4"/>
						</g>
					</g>
				</g>
				<g id="text_6">
					<g transform="translate(472.715625 401.918125)scale(0.12 -0.12)">
						<g>
							<path id="BitstreamVeraSans-Roman-31" d="M12.406,8.297h16.109v55.625l-17.531-3.516v8.984l17.438,3.516h9.859V8.297h16.109
								V0H12.406V8.297z"/>
						</g>
						<g>
							<path id="BitstreamVeraSans-Roman-2e_5_" d="M74.311,12.406h10.312V0H74.311V12.406z"/>
						</g>
						<g>
							<path id="BitstreamVeraSans-Roman-30_6_" d="M127.191,66.406c-5.073,0-8.891-2.5-11.453-7.5
								c-2.552-4.99-3.828-12.5-3.828-22.531c0-9.99,1.276-17.484,3.828-22.484c2.563-5,6.38-7.5,11.453-7.5
								c5.115,0,8.948,2.5,11.5,7.5c2.563,5,3.844,12.495,3.844,22.484c0,10.031-1.281,17.542-3.844,22.531
								C136.139,63.906,132.306,66.406,127.191,66.406 M127.191,74.219c8.177,0,14.422-3.234,18.734-9.703
								c4.313-6.458,6.469-15.839,6.469-28.141c0-12.271-2.156-21.641-6.469-28.109c-4.312-6.458-10.557-9.688-18.734-9.688
								c-8.167,0-14.406,3.229-18.719,9.688c-4.312,6.469-6.469,15.839-6.469,28.109c0,12.302,2.156,21.682,6.469,28.141
								C112.785,70.984,119.025,74.219,127.191,74.219"/>
						</g>
					</g>
				</g>
			</g>
			<g id="text_7">
				<g transform="translate(232.9190625 418.531875)scale(0.12 -0.12)">
					<g>
						<path id="BitstreamVeraSans-Roman-49" d="M9.813,72.906h9.859V0H9.813V72.906z"/>
					</g>
					<g>
						<path id="BitstreamVeraSans-Roman-6e" d="M84.383,33.016V0h-8.984v32.719c0,5.177-1.01,9.047-3.031,11.609
							c-2.021,2.573-5.047,3.859-9.078,3.859c-4.854,0-8.682-1.547-11.484-4.641c-2.802-3.083-4.203-7.297-4.203-12.641V0H38.57
							v54.688h9.031v-8.5c2.156,3.292,4.688,5.75,7.594,7.375C58.112,55.187,61.477,56,65.289,56c6.281,0,11.031-1.943,14.25-5.828
							C82.768,46.286,84.383,40.568,84.383,33.016"/>
					</g>
					<g>
						<path id="BitstreamVeraSans-Roman-69" d="M102.293,54.687h8.984V0h-8.984V54.687z M102.293,75.984h8.984V64.594h-8.984V75.984
							z"/>
					</g>
					<g>
						<path id="BitstreamVeraSans-Roman-74" d="M138.967,70.219V54.687h18.5v-6.984h-18.5V18.016c0-4.458,0.609-7.323,1.828-8.594
							c1.219-1.271,3.703-1.906,7.453-1.906h9.219V0h-9.219c-6.938,0-11.724,1.292-14.359,3.875
							c-2.635,2.594-3.953,7.307-3.953,14.141v29.687h-6.594v6.984h6.594v15.531H138.967z"/>
					</g>
					<g>
						<path id="BitstreamVeraSans-Roman-69_1_" d="M169.285,54.687h8.984V0h-8.984V54.687z M169.285,75.984h8.984V64.594h-8.984
							V75.984z"/>
					</g>
					<g>
						<path id="BitstreamVeraSans-Roman-61" d="M221.928,27.484c-7.26,0-12.292-0.828-15.094-2.484s-4.203-4.49-4.203-8.5
							c0-3.187,1.052-5.719,3.156-7.594c2.104-1.865,4.958-2.797,8.562-2.797c4.99,0,8.99,1.766,12,5.297
							c3.01,3.531,4.516,8.224,4.516,14.078v2H221.928z M239.85,31.203V0h-8.984v8.297c-2.052-3.313-4.609-5.76-7.672-7.344
							c-3.063-1.583-6.807-2.375-11.234-2.375c-5.594,0-10.047,1.573-13.359,4.719c-3.302,3.146-4.953,7.354-4.953,12.625
							c0,6.146,2.057,10.781,6.172,13.906c4.125,3.125,10.271,4.687,18.438,4.687h12.609v0.891c0,4.135-1.359,7.333-4.078,9.594
							c-2.719,2.26-6.536,3.391-11.453,3.391c-3.125,0-6.172-0.375-9.141-1.125c-2.958-0.75-5.802-1.875-8.531-3.375v8.312
							c3.281,1.271,6.469,2.219,9.562,2.844c3.094,0.635,6.104,0.953,9.031,0.953c7.917,0,13.828-2.052,17.734-6.156
							C237.896,45.75,239.85,39.536,239.85,31.203"/>
					</g>
					<g>
						<path id="BitstreamVeraSans-Roman-6c" d="M258.348,75.984h8.984V0h-8.984V75.984z"/>
					</g>
					<g>
						<path id="BitstreamVeraSans-Roman-20" d="M276.709,0"/>
					</g>
					<g>
						<path id="BitstreamVeraSans-Roman-69_2_" d="M317.918,54.687h8.984V0h-8.984V54.687z M317.918,75.984h8.984V64.594h-8.984
							V75.984z"/>
					</g>
					<g>
						<path id="BitstreamVeraSans-Roman-6e_1_" d="M391.17,33.016V0h-8.984v32.719c0,5.177-1.01,9.047-3.031,11.609
							c-2.021,2.573-5.047,3.859-9.078,3.859c-4.854,0-8.682-1.547-11.484-4.641c-2.802-3.083-4.203-7.297-4.203-12.641V0h-9.031
							v54.688h9.031v-8.5c2.156,3.292,4.688,5.75,7.594,7.375c2.917,1.625,6.281,2.438,10.094,2.438
							c6.281,0,11.031-1.943,14.25-5.828C389.555,46.286,391.17,40.568,391.17,33.016"/>
					</g>
					<g>
						<path id="BitstreamVeraSans-Roman-76" d="M402.643,54.687h9.516l17.094-45.891l17.094,45.891h9.516L435.346,0h-12.203
							L402.643,54.687z"/>
					</g>
					<g>
						<path id="BitstreamVeraSans-Roman-65" d="M515.041,29.594v-4.391h-41.312c0.396-6.187,2.26-10.901,5.594-14.141
							c3.333-3.24,7.979-4.859,13.938-4.859c3.448,0,6.792,0.422,10.031,1.266c3.24,0.844,6.458,2.115,9.656,3.812v-8.5
							c-3.229-1.365-6.536-2.406-9.922-3.125c-3.385-0.719-6.818-1.078-10.297-1.078c-8.729,0-15.641,2.536-20.734,7.609
							c-5.094,5.083-7.641,11.958-7.641,20.625c0,8.948,2.417,16.047,7.25,21.297C476.437,53.37,482.958,56,491.166,56
							c7.354,0,13.172-2.37,17.453-7.109C512.9,44.161,515.041,37.729,515.041,29.594 M506.057,32.234
							c-0.063,4.906-1.438,8.823-4.125,11.75c-2.688,2.937-6.245,4.406-10.672,4.406c-5.01,0-9.021-1.417-12.031-4.25
							c-3.01-2.833-4.745-6.823-5.203-11.969L506.057,32.234z"/>
					</g>
					<g>
						<path id="BitstreamVeraSans-Roman-73" d="M564.643,53.078v-8.5c-2.531,1.302-5.167,2.276-7.906,2.922
							c-2.729,0.656-5.563,0.984-8.5,0.984c-4.458,0-7.802-0.682-10.031-2.047c-2.229-1.365-3.344-3.417-3.344-6.156
							c0-2.083,0.797-3.719,2.391-4.906c1.594-1.187,4.802-2.318,9.625-3.391l3.078-0.688c6.375-1.365,10.906-3.292,13.594-5.781
							c2.688-2.49,4.031-5.964,4.031-10.422c0-5.083-2.01-9.109-6.031-12.078c-4.021-2.958-9.547-4.438-16.578-4.438
							c-2.927,0-5.979,0.286-9.156,0.859C532.637,0.01,529.294,0.865,525.783,2v9.281c3.323-1.729,6.594-3.026,9.812-3.891
							c3.219-0.854,6.411-1.281,9.578-1.281c4.229,0,7.479,0.724,9.75,2.172c2.281,1.448,3.422,3.49,3.422,6.125
							c0,2.438-0.823,4.307-2.469,5.609c-1.635,1.302-5.24,2.557-10.812,3.766l-3.125,0.734c-5.562,1.167-9.583,2.964-12.062,5.391
							c-2.469,2.427-3.703,5.755-3.703,9.984c0,5.146,1.823,9.115,5.469,11.906c3.646,2.802,8.823,4.203,15.531,4.203
							c3.312,0,6.432-0.245,9.359-0.734C559.471,54.786,562.174,54.057,564.643,53.078"/>
					</g>
					<g>
						<path id="BitstreamVeraSans-Roman-74_1_" d="M590.773,70.219V54.687h18.5v-6.984h-18.5V18.016
							c0-4.458,0.609-7.323,1.828-8.594c1.219-1.271,3.703-1.906,7.453-1.906h9.219V0h-9.219c-6.938,0-11.724,1.292-14.359,3.875
							c-2.635,2.594-3.953,7.307-3.953,14.141v29.687h-6.594v6.984h6.594v15.531H590.773z"/>
					</g>
					<g>
						<path id="BitstreamVeraSans-Roman-6d" d="M663.67,44.187c2.25,4.042,4.938,7.021,8.062,8.938S678.534,56,682.764,56
							c5.698,0,10.094-1.995,13.187-5.984c3.094-3.979,4.641-9.646,4.641-17V0h-9.031v32.719c0,5.24-0.932,9.125-2.797,11.656
							c-1.854,2.542-4.682,3.812-8.484,3.812c-4.656,0-8.339-1.547-11.047-4.641c-2.698-3.083-4.047-7.297-4.047-12.641V0h-9.031
							v32.719c0,5.271-0.927,9.167-2.781,11.687c-1.854,2.521-4.719,3.781-8.594,3.781c-4.594,0-8.245-1.552-10.953-4.656
							c-2.698-3.104-4.047-7.312-4.047-12.625V0h-9.031v54.688h9.031v-8.5c2.052,3.354,4.51,5.828,7.375,7.422S643.42,56,647.357,56
							c3.979,0,7.359-1.01,10.141-3.031C660.279,50.958,662.337,48.031,663.67,44.187"/>
					</g>
					<g>
						<path id="BitstreamVeraSans-Roman-65_1_" d="M765.285,29.594v-4.391h-41.312c0.396-6.187,2.26-10.901,5.594-14.141
							c3.333-3.24,7.979-4.859,13.938-4.859c3.448,0,6.792,0.422,10.031,1.266c3.24,0.844,6.458,2.115,9.656,3.812v-8.5
							c-3.229-1.365-6.536-2.406-9.922-3.125c-3.385-0.719-6.818-1.078-10.297-1.078c-8.729,0-15.641,2.536-20.734,7.609
							c-5.094,5.083-7.641,11.958-7.641,20.625c0,8.948,2.417,16.047,7.25,21.297C726.681,53.37,733.202,56,741.41,56
							c7.354,0,13.172-2.37,17.453-7.109C763.144,44.161,765.285,37.729,765.285,29.594 M756.301,32.234
							c-0.063,4.906-1.438,8.823-4.125,11.75c-2.688,2.937-6.245,4.406-10.672,4.406c-5.01,0-9.021-1.417-12.031-4.25
							c-3.01-2.833-4.745-6.823-5.203-11.969L756.301,32.234z"/>
					</g>
					<g>
						<path id="BitstreamVeraSans-Roman-6e_2_" d="M825.496,33.016V0h-8.984v32.719c0,5.177-1.01,9.047-3.031,11.609
							c-2.021,2.573-5.047,3.859-9.078,3.859c-4.854,0-8.682-1.547-11.484-4.641c-2.802-3.083-4.203-7.297-4.203-12.641V0h-9.031
							v54.688h9.031v-8.5c2.156,3.292,4.688,5.75,7.594,7.375C799.225,55.187,802.59,56,806.402,56
							c6.281,0,11.031-1.943,14.25-5.828C823.881,46.286,825.496,40.568,825.496,33.016"/>
					</g>
					<g>
						<path id="BitstreamVeraSans-Roman-74_2_" d="M852.297,70.219V54.687h18.5v-6.984h-18.5V18.016
							c0-4.458,0.609-7.323,1.828-8.594c1.219-1.271,3.703-1.906,7.453-1.906h9.219V0h-9.219c-6.938,0-11.724,1.292-14.359,3.875
							c-2.635,2.594-3.953,7.307-3.953,14.141v29.687h-6.594v6.984h6.594v15.531H852.297z"/>
					</g>
					<g>
						<path id="BitstreamVeraSans-Roman-20_1_" d="M873.193,0"/>
					</g>
					<g>
						<path id="BitstreamVeraSans-Roman-28" d="M935.98,75.875c-4.354-7.479-7.594-14.885-9.719-22.219
							c-2.115-7.323-3.172-14.745-3.172-22.266c0-7.51,1.068-14.953,3.203-22.328c2.135-7.375,5.365-14.792,9.688-22.25h-7.812
							c-4.875,7.656-8.526,15.177-10.953,22.562c-2.427,7.385-3.641,14.724-3.641,22.016c0,7.26,1.203,14.568,3.609,21.922
							c2.417,7.365,6.078,14.885,10.984,22.562H935.98z"/>
					</g>
					<g>
						<path id="BitstreamVeraSans-Roman-24" d="M977.791-14.703H972.9L972.854,0c-3.417,0.062-6.833,0.458-10.25,1.188
							c-3.417,0.74-6.854,1.844-10.312,3.312v8.781c3.323-2.083,6.682-3.656,10.078-4.719c3.406-1.052,6.917-1.594,10.531-1.625
							v22.266c-7.198,1.167-12.432,3.151-15.703,5.953c-3.271,2.802-4.906,6.646-4.906,11.531c0,5.302,1.776,9.479,5.328,12.531
							c3.552,3.062,8.646,4.823,15.281,5.281v11.484h4.891V64.656c3.021-0.135,5.948-0.458,8.781-0.969
							c2.833-0.5,5.599-1.188,8.297-2.062v-8.547c-2.698,1.365-5.474,2.422-8.328,3.172c-2.844,0.75-5.76,1.188-8.75,1.312V36.719
							c7.385-1.135,12.818-3.172,16.297-6.109c3.49-2.927,5.234-6.927,5.234-12c0-5.5-1.849-9.839-5.547-13.016
							c-3.698-3.177-9.026-5.01-15.984-5.5V-14.703z M972.9,37.594v20.031c-3.771-0.427-6.651-1.505-8.641-3.234
							c-1.99-1.719-2.984-4.01-2.984-6.875c0-2.802,0.917-4.984,2.75-6.547C965.869,39.406,968.827,38.281,972.9,37.594
							 M977.791,28.219V7.078c4.125,0.552,7.24,1.724,9.344,3.516c2.104,1.792,3.156,4.151,3.156,7.078
							c0,2.865-1.005,5.141-3.016,6.828C985.275,26.198,982.114,27.438,977.791,28.219"/>
					</g>
					<g>
						<path id="BitstreamVeraSans-Roman-29" d="M1015.633,75.875h7.812c4.875-7.677,8.526-15.198,10.953-22.562
							c2.427-7.354,3.641-14.661,3.641-21.922c0-7.292-1.214-14.63-3.641-22.016c-2.427-7.385-6.078-14.906-10.953-22.562h-7.812
							c4.323,7.458,7.552,14.875,9.688,22.25c2.135,7.375,3.203,14.818,3.203,22.328c0,7.521-1.068,14.943-3.203,22.266
							C1023.185,60.99,1019.956,68.396,1015.633,75.875"/>
					</g>
				</g>
			</g>
		</g>
		<g id="matplotlib.axis_2">
			<g id="ytick_3">
				<g id="line2d_14">
					<g>
						<g>
							<path id="m728421d6d4" stroke="#000000" stroke-width="0.5" stroke-linejoin="round" d="M72,364.104h4"/>
						</g>
					</g>
				</g>
				<g id="line2d_15">
					<g>
						<g>
							<path id="mcb0005524f" stroke="#000000" stroke-width="0.5" stroke-linejoin="round" d="M518.4,364.104h-4"/>
						</g>
					</g>
				</g>
				<g id="text_10">
					<g transform="translate(31.28 368.028738935)scale(0.12 -0.12)">
						<g transform="translate(0.0 0.546875)">
							<path id="BitstreamVeraSans-Roman-31_1_" d="M12.406,8.844h16.109v55.625l-17.531-3.516v8.984l17.438,3.516h9.859V8.844
								h16.109V0.547H12.406V8.844z"/>
						</g>
						<g transform="translate(63.623046875 0.546875)">
							<path id="BitstreamVeraSans-Roman-30_9_" d="M95.404,66.953c-5.073,0-8.891-2.5-11.453-7.5
								c-2.552-4.99-3.828-12.5-3.828-22.531c0-9.99,1.276-17.484,3.828-22.484c2.563-5,6.38-7.5,11.453-7.5
								c5.115,0,8.948,2.5,11.5,7.5c2.563,5,3.844,12.495,3.844,22.484c0,10.031-1.281,17.542-3.844,22.531
								C104.352,64.453,100.519,66.953,95.404,66.953 M95.404,74.766c8.177,0,14.422-3.234,18.734-9.703
								c4.313-6.458,6.469-15.839,6.469-28.141c0-12.271-2.156-21.641-6.469-28.109c-4.312-6.458-10.557-9.688-18.734-9.688
								c-8.167,0-14.406,3.229-18.719,9.688c-4.312,6.469-6.469,15.839-6.469,28.109c0,12.302,2.156,21.682,6.469,28.141
								C80.998,71.531,87.238,74.766,95.404,74.766"/>
						</g>
						<g transform="translate(127.24609375 53.046875)scale(0.7)">
							<path id="BitstreamVeraSans-Roman-2d" d="M130.67,75.02h18.419v-5.6H130.67V75.02z"/>
						</g>
						<g transform="translate(152.504882812 53.046875)scale(0.7)">
							<path id="BitstreamVeraSans-Roman-32_1_" d="M165.936,58.855h24.095v-5.808h-32.397v5.808
								c2.618,2.713,6.187,6.351,10.708,10.916c4.528,4.572,7.372,7.521,8.531,8.848c2.209,2.479,3.752,4.579,4.627,6.3
								c0.882,1.721,1.323,3.413,1.323,5.075c0,2.713-0.952,4.922-2.855,6.628c-1.903,1.714-4.382,2.57-7.438,2.57
								c-2.166,0-4.452-0.376-6.858-1.127c-2.399-0.751-4.966-1.892-7.7-3.423v6.978c2.778,1.116,5.374,1.958,7.787,2.527
								c2.421,0.569,4.634,0.853,6.639,0.853c5.286,0,9.501-1.323,12.644-3.97c3.143-2.64,4.714-6.169,4.714-10.587
								c0-2.1-0.394-4.091-1.181-5.972c-0.78-1.874-2.209-4.087-4.288-6.639c-0.569-0.664-2.381-2.574-5.436-5.731
								C175.805,68.943,171.5,64.528,165.936,58.855"/>
						</g>
						<g transform="translate(195.816015625 53.046875)scale(0.7)">
							<path id="BitstreamVeraSans-Roman-39" d="M203.505,54.108v6.289c1.735-0.824,3.489-1.451,5.261-1.881
								c1.779-0.43,3.526-0.645,5.239-0.645c4.557,0,8.035,1.531,10.434,4.594c2.406,3.063,3.781,7.718,4.123,13.967
								c-1.32-1.961-2.997-3.467-5.031-4.517c-2.027-1.05-4.269-1.575-6.727-1.575c-5.104,0-9.144,1.542-12.119,4.627
								c-2.975,3.092-4.463,7.317-4.463,12.677c0,5.235,1.549,9.435,4.648,12.6c3.099,3.172,7.222,4.758,12.37,4.758
								c5.906,0,10.412-2.264,13.519-6.792c3.114-4.521,4.67-11.087,4.67-19.698c0-8.043-1.91-14.463-5.731-19.261
								c-3.814-4.798-8.943-7.197-15.389-7.197c-1.735,0-3.493,0.171-5.272,0.514C207.268,52.908,205.423,53.422,203.505,54.108
								 M217.243,75.742c3.099,0,5.553,1.057,7.361,3.172c1.816,2.122,2.723,5.031,2.723,8.728c0,3.668-0.908,6.566-2.723,8.695
								c-1.808,2.129-4.262,3.194-7.361,3.194c-3.099,0-5.553-1.065-7.361-3.194c-1.808-2.129-2.713-5.028-2.713-8.695
								c0-3.697,0.904-6.606,2.713-8.728C211.69,76.799,214.144,75.742,217.243,75.742"/>
						</g>
						<g transform="translate(240.352148438 53.046875)scale(0.7)">
							<path id="BitstreamVeraSans-Roman-37" d="M246.094,104.081h32.812v-2.942l-18.528-48.092h-7.208l17.434,45.216h-24.511
								V104.081z"/>
						</g>
					</g>
				</g>
			</g>
			<g id="ytick_4">
				<g id="line2d_16">
					<g>
						<g>
							<path id="m728421d6d4_1_" stroke="#000000" stroke-width="0.5" stroke-linejoin="round" d="M72,338.757h4"/>
						</g>
					</g>
				</g>
				<g id="line2d_17">
					<g>
						<g>
							<path id="mcb0005524f_1_" stroke="#000000" stroke-width="0.5" stroke-linejoin="round" d="M518.4,338.757h-4"/>
						</g>
					</g>
				</g>
				<g id="text_11">
					<g transform="translate(31.04 342.681794684)scale(0.12 -0.12)">
						<g transform="translate(0.0 0.546875)">
							<path id="BitstreamVeraSans-Roman-31_2_" d="M12.406,8.844h16.109v55.625l-17.531-3.516v8.984l17.438,3.516h9.859V8.844
								h16.109V0.547H12.406V8.844z"/>
						</g>
						<g transform="translate(63.623046875 0.546875)">
							<path id="BitstreamVeraSans-Roman-30_10_" d="M95.404,66.953c-5.073,0-8.891-2.5-11.453-7.5
								c-2.552-4.99-3.828-12.5-3.828-22.531c0-9.99,1.276-17.484,3.828-22.484c2.563-5,6.38-7.5,11.453-7.5
								c5.115,0,8.948,2.5,11.5,7.5c2.563,5,3.844,12.495,3.844,22.484c0,10.031-1.281,17.542-3.844,22.531
								C104.352,64.453,100.519,66.953,95.404,66.953 M95.404,74.766c8.177,0,14.422-3.234,18.734-9.703
								c4.313-6.458,6.469-15.839,6.469-28.141c0-12.271-2.156-21.641-6.469-28.109c-4.312-6.458-10.557-9.688-18.734-9.688
								c-8.167,0-14.406,3.229-18.719,9.688c-4.312,6.469-6.469,15.839-6.469,28.109c0,12.302,2.156,21.682,6.469,28.141
								C80.998,71.531,87.238,74.766,95.404,74.766"/>
						</g>
						<g transform="translate(127.24609375 53.046875)scale(0.7)">
							<path id="BitstreamVeraSans-Roman-2d_1_" d="M130.67,75.02h18.419v-5.6H130.67V75.02z"/>
						</g>
						<g transform="translate(152.504882812 53.046875)scale(0.7)">
							<path id="BitstreamVeraSans-Roman-32_2_" d="M165.936,58.855h24.095v-5.808h-32.397v5.808
								c2.618,2.713,6.187,6.351,10.708,10.916c4.528,4.572,7.372,7.521,8.531,8.848c2.209,2.479,3.752,4.579,4.627,6.3
								c0.882,1.721,1.323,3.413,1.323,5.075c0,2.713-0.952,4.922-2.855,6.628c-1.903,1.714-4.382,2.57-7.438,2.57
								c-2.166,0-4.452-0.376-6.858-1.127c-2.399-0.751-4.966-1.892-7.7-3.423v6.978c2.778,1.116,5.374,1.958,7.787,2.527
								c2.421,0.569,4.634,0.853,6.639,0.853c5.286,0,9.501-1.323,12.644-3.97c3.143-2.64,4.714-6.169,4.714-10.588
								c0-2.1-0.394-4.091-1.181-5.972c-0.78-1.874-2.209-4.087-4.288-6.639c-0.569-0.664-2.381-2.574-5.436-5.731
								C175.805,68.943,171.5,64.528,165.936,58.855"/>
						</g>
						<g transform="translate(197.041015625 53.046875)scale(0.7)">
							<path id="BitstreamVeraSans-Roman-37_1_" d="M202.783,104.081h32.812v-2.942l-18.528-48.092h-7.208l17.434,45.216h-24.511
								V104.081z"/>
						</g>
						<g transform="translate(241.577148438 53.046875)scale(0.7)">
							<path id="BitstreamVeraSans-Roman-30_11_" d="M263.824,99.531c-3.551,0-6.223-1.75-8.017-5.25
								c-1.786-3.493-2.68-8.75-2.68-15.772c0-6.993,0.893-12.239,2.68-15.739c1.794-3.5,4.466-5.25,8.017-5.25
								c3.58,0,6.264,1.75,8.05,5.25c1.794,3.5,2.691,8.746,2.691,15.739c0,7.022-0.897,12.279-2.691,15.772
								C270.088,97.781,267.404,99.531,263.824,99.531 M263.824,105c5.724,0,10.095-2.264,13.114-6.792
								c3.019-4.521,4.528-11.087,4.528-19.698c0-8.59-1.509-15.148-4.528-19.677c-3.019-4.521-7.39-6.781-13.114-6.781
								c-5.717,0-10.084,2.26-13.103,6.781c-3.019,4.528-4.528,11.087-4.528,19.677c0,8.611,1.509,15.178,4.528,19.698
								C253.74,102.736,258.107,105,263.824,105"/>
						</g>
					</g>
				</g>
			</g>
			<g id="ytick_5">
				<g id="line2d_18">
					<g>
						<g>
							<path id="m728421d6d4_2_" stroke="#000000" stroke-width="0.5" stroke-linejoin="round" d="M72,313.41h4"/>
						</g>
					</g>
				</g>
				<g id="line2d_19">
					<g>
						<g>
							<path id="mcb0005524f_2_" stroke="#000000" stroke-width="0.5" stroke-linejoin="round" d="M518.4,313.41h-4"/>
						</g>
					</g>
				</g>
				<g id="text_12">
					<g transform="translate(31.04 317.334850433)scale(0.12 -0.12)">
						<g transform="translate(0.0 0.546875)">
							<path id="BitstreamVeraSans-Roman-31_3_" d="M12.406,8.844h16.109v55.625l-17.531-3.516v8.984l17.438,3.516h9.859V8.844
								h16.109V0.547H12.406V8.844z"/>
						</g>
						<g transform="translate(63.623046875 0.546875)">
							<path id="BitstreamVeraSans-Roman-30_12_" d="M95.404,66.953c-5.073,0-8.891-2.5-11.453-7.5
								c-2.552-4.99-3.828-12.5-3.828-22.531c0-9.99,1.276-17.484,3.828-22.484c2.563-5,6.38-7.5,11.453-7.5
								c5.115,0,8.948,2.5,11.5,7.5c2.563,5,3.844,12.495,3.844,22.484c0,10.031-1.281,17.542-3.844,22.531
								C104.352,64.453,100.519,66.953,95.404,66.953 M95.404,74.766c8.177,0,14.422-3.234,18.734-9.703
								c4.313-6.458,6.469-15.839,6.469-28.141c0-12.271-2.156-21.641-6.469-28.109c-4.312-6.458-10.557-9.688-18.734-9.688
								c-8.167,0-14.406,3.229-18.719,9.688c-4.312,6.469-6.469,15.839-6.469,28.109c0,12.302,2.156,21.682,6.469,28.141
								C80.998,71.531,87.238,74.766,95.404,74.766"/>
						</g>
						<g transform="translate(127.24609375 53.046875)scale(0.7)">
							<path id="BitstreamVeraSans-Roman-2d_2_" d="M130.67,75.02h18.419v-5.6H130.67V75.02z"/>
						</g>
						<g transform="translate(152.504882812 53.046875)scale(0.7)">
							<path id="BitstreamVeraSans-Roman-32_3_" d="M165.936,58.855h24.095v-5.808h-32.397v5.808
								c2.618,2.713,6.187,6.351,10.708,10.916c4.528,4.572,7.372,7.521,8.531,8.848c2.209,2.479,3.752,4.579,4.627,6.3
								c0.882,1.721,1.323,3.413,1.323,5.075c0,2.713-0.952,4.922-2.855,6.628c-1.903,1.714-4.382,2.57-7.438,2.57
								c-2.166,0-4.452-0.376-6.858-1.127c-2.399-0.751-4.966-1.892-7.7-3.423v6.978c2.778,1.116,5.374,1.958,7.787,2.527
								c2.421,0.569,4.634,0.853,6.639,0.853c5.286,0,9.501-1.323,12.644-3.97c3.143-2.64,4.714-6.169,4.714-10.587
								c0-2.1-0.394-4.091-1.181-5.972c-0.78-1.874-2.209-4.087-4.288-6.639c-0.569-0.664-2.381-2.574-5.436-5.731
								C175.805,68.943,171.5,64.528,165.936,58.855"/>
						</g>
						<g transform="translate(197.041015625 53.046875)scale(0.7)">
							<path id="BitstreamVeraSans-Roman-34_1_" d="M223.499,98.066L206.064,70.82h17.434V98.066z M221.683,104.081h8.684V70.82
								h7.284v-5.742h-7.284V53.047h-6.869v12.031h-23.034v6.661L221.683,104.081z"/>
						</g>
						<g transform="translate(241.577148438 53.046875)scale(0.7)">
							<path id="BitstreamVeraSans-Roman-33" d="M269.982,80.566c3.303-0.707,5.881-2.18,7.733-4.419
								c1.859-2.231,2.789-4.987,2.789-8.269c0-5.031-1.732-8.929-5.195-11.692c-3.464-2.756-8.385-4.134-14.766-4.134
								c-2.137,0-4.339,0.211-6.606,0.634c-2.268,0.423-4.608,1.057-7.022,1.903v6.661c1.91-1.116,4.003-1.958,6.278-2.527
								c2.282-0.569,4.667-0.853,7.153-0.853c4.324,0,7.62,0.853,9.888,2.559c2.268,1.706,3.402,4.189,3.402,7.448
								c0,3.011-1.054,5.363-3.161,7.055c-2.107,1.699-5.038,2.548-8.794,2.548h-5.95v5.677h6.223c3.391,0,5.986,0.678,7.787,2.034
								c1.801,1.356,2.702,3.31,2.702,5.862c0,2.618-0.93,4.627-2.789,6.027c-1.852,1.407-4.51,2.111-7.973,2.111
								c-1.896,0-3.927-0.208-6.092-0.623c-2.166-0.408-4.546-1.043-7.142-1.903v6.147c2.625,0.729,5.082,1.276,7.372,1.641
								c2.29,0.365,4.448,0.547,6.475,0.547c5.243,0,9.388-1.192,12.436-3.577c3.055-2.377,4.583-5.593,4.583-9.647
								c0-2.829-0.809-5.217-2.428-7.164C275.265,82.666,272.964,81.317,269.982,80.566"/>
						</g>
					</g>
				</g>
			</g>
			<g id="ytick_6">
				<g id="line2d_20">
					<g>
						<g>
							<path id="m728421d6d4_3_" stroke="#000000" stroke-width="0.5" stroke-linejoin="round" d="M72,288.064h4"/>
						</g>
					</g>
				</g>
				<g id="line2d_21">
					<g>
						<g>
							<path id="mcb0005524f_3_" stroke="#000000" stroke-width="0.5" stroke-linejoin="round" d="M518.4,288.064h-4"/>
						</g>
					</g>
				</g>
				<g id="text_13">
					<g transform="translate(31.04 291.987906182)scale(0.12 -0.12)">
						<g transform="translate(0.0 0.546875)">
							<path id="BitstreamVeraSans-Roman-31_4_" d="M12.406,8.844h16.109v55.625l-17.531-3.516v8.984l17.438,3.516h9.859V8.844
								h16.109V0.547H12.406V8.844z"/>
						</g>
						<g transform="translate(63.623046875 0.546875)">
							<path id="BitstreamVeraSans-Roman-30_13_" d="M95.404,66.953c-5.073,0-8.891-2.5-11.453-7.5
								c-2.552-4.99-3.828-12.5-3.828-22.531c0-9.99,1.276-17.484,3.828-22.484c2.563-5,6.38-7.5,11.453-7.5
								c5.115,0,8.948,2.5,11.5,7.5c2.563,5,3.844,12.495,3.844,22.484c0,10.031-1.281,17.542-3.844,22.531
								C104.352,64.453,100.519,66.953,95.404,66.953 M95.404,74.766c8.177,0,14.422-3.234,18.734-9.703
								c4.313-6.458,6.469-15.839,6.469-28.141c0-12.271-2.156-21.641-6.469-28.109c-4.312-6.458-10.557-9.688-18.734-9.688
								c-8.167,0-14.406,3.229-18.719,9.688c-4.312,6.469-6.469,15.839-6.469,28.109c0,12.302,2.156,21.682,6.469,28.141
								C80.998,71.531,87.238,74.766,95.404,74.766"/>
						</g>
						<g transform="translate(127.24609375 53.046875)scale(0.7)">
							<path id="BitstreamVeraSans-Roman-2d_3_" d="M130.67,75.02h18.419v-5.6H130.67V75.02z"/>
						</g>
						<g transform="translate(152.504882812 53.046875)scale(0.7)">
							<path id="BitstreamVeraSans-Roman-32_4_" d="M165.936,58.855h24.095v-5.808h-32.397v5.808
								c2.618,2.713,6.187,6.351,10.708,10.916c4.528,4.572,7.372,7.521,8.531,8.848c2.209,2.479,3.752,4.579,4.627,6.3
								c0.882,1.721,1.323,3.413,1.323,5.075c0,2.713-0.952,4.922-2.855,6.628c-1.903,1.714-4.382,2.57-7.438,2.57
								c-2.166,0-4.452-0.376-6.858-1.127c-2.399-0.751-4.966-1.892-7.7-3.423v6.978c2.778,1.116,5.374,1.958,7.787,2.527
								c2.421,0.569,4.634,0.853,6.639,0.853c5.286,0,9.501-1.323,12.644-3.97c3.143-2.64,4.714-6.169,4.714-10.588
								c0-2.1-0.394-4.091-1.181-5.972c-0.78-1.874-2.209-4.087-4.288-6.639c-0.569-0.664-2.381-2.574-5.436-5.731
								C175.805,68.943,171.5,64.528,165.936,58.855"/>
						</g>
						<g transform="translate(197.041015625 53.046875)scale(0.7)">
							<path id="BitstreamVeraSans-Roman-31_5_" d="M205.725,58.855h11.277v38.938l-12.272-2.461v6.289l12.206,2.461h6.902V58.855
								h11.277v-5.808h-29.389V58.855z"/>
						</g>
						<g transform="translate(241.577148438 53.046875)scale(0.7)">
							<path id="BitstreamVeraSans-Roman-36_1_" d="M264.688,81.309c-3.099,0-5.556-1.061-7.372-3.183
								c-1.808-2.115-2.712-5.017-2.712-8.706c0-3.668,0.904-6.57,2.712-8.706c1.816-2.129,4.273-3.194,7.372-3.194
								c3.099,0,5.553,1.065,7.361,3.194c1.808,2.136,2.712,5.039,2.712,8.706c0,3.69-0.904,6.592-2.712,8.706
								C270.241,80.248,267.787,81.309,264.688,81.309 M278.393,102.955v-6.289c-1.735,0.817-3.485,1.44-5.25,1.87
								c-1.765,0.438-3.515,0.656-5.25,0.656c-4.557,0-8.039-1.539-10.445-4.616c-2.399-3.077-3.77-7.726-4.113-13.945
								c1.342,1.983,3.026,3.504,5.053,4.561c2.034,1.057,4.269,1.586,6.705,1.586c5.126,0,9.177-1.557,12.152-4.67
								c2.975-3.106,4.462-7.335,4.462-12.687c0-5.243-1.549-9.45-4.648-12.622c-3.099-3.165-7.222-4.747-12.37-4.747
								c-5.906,0-10.42,2.26-13.541,6.781c-3.121,4.528-4.681,11.087-4.681,19.677c0,8.065,1.914,14.496,5.742,19.294
								c3.828,4.798,8.965,7.197,15.411,7.197c1.735,0,3.485-0.171,5.25-0.514C274.634,104.143,276.475,103.633,278.393,102.955"/>
						</g>
					</g>
				</g>
			</g>
			<g id="ytick_7">
				<g id="line2d_22">
					<g>
						<g>
							<path id="m728421d6d4_4_" stroke="#000000" stroke-width="0.5" stroke-linejoin="round" d="M72,262.717h4"/>
						</g>
					</g>
				</g>
				<g id="line2d_23">
					<g>
						<g>
							<path id="mcb0005524f_4_" stroke="#000000" stroke-width="0.5" stroke-linejoin="round" d="M518.4,262.717h-4"/>
						</g>
					</g>
				</g>
				<g id="text_14">
					<g transform="translate(31.04 266.64096193)scale(0.12 -0.12)">
						<g transform="translate(0.0 0.546875)">
							<path id="BitstreamVeraSans-Roman-31_6_" d="M12.406,8.844h16.109v55.625l-17.531-3.516v8.984l17.438,3.516h9.859V8.844
								h16.109V0.547H12.406V8.844z"/>
						</g>
						<g transform="translate(63.623046875 0.546875)">
							<path id="BitstreamVeraSans-Roman-30_14_" d="M95.404,66.953c-5.073,0-8.891-2.5-11.453-7.5
								c-2.552-4.99-3.828-12.5-3.828-22.531c0-9.99,1.276-17.484,3.828-22.484c2.563-5,6.38-7.5,11.453-7.5
								c5.115,0,8.948,2.5,11.5,7.5c2.563,5,3.844,12.495,3.844,22.484c0,10.031-1.281,17.542-3.844,22.531
								C104.352,64.453,100.519,66.953,95.404,66.953 M95.404,74.766c8.177,0,14.422-3.234,18.734-9.703
								c4.313-6.458,6.469-15.839,6.469-28.141c0-12.271-2.156-21.641-6.469-28.109c-4.312-6.458-10.557-9.688-18.734-9.688
								c-8.167,0-14.406,3.229-18.719,9.688c-4.312,6.469-6.469,15.839-6.469,28.109c0,12.302,2.156,21.682,6.469,28.141
								C80.998,71.531,87.238,74.766,95.404,74.766"/>
						</g>
						<g transform="translate(127.24609375 53.046875)scale(0.7)">
							<path id="BitstreamVeraSans-Roman-2d_4_" d="M130.67,75.02h18.419v-5.6H130.67V75.02z"/>
						</g>
						<g transform="translate(152.504882812 53.046875)scale(0.7)">
							<path id="BitstreamVeraSans-Roman-31_7_" d="M161.189,58.855h11.277v38.938l-12.272-2.461v6.289l12.206,2.461h6.902V58.855
								h11.277v-5.808h-29.389V58.855z"/>
						</g>
						<g transform="translate(197.041015625 53.046875)scale(0.7)">
							<path id="BitstreamVeraSans-Roman-38_1_" d="M219.288,77.284c-3.281,0-5.862-0.879-7.744-2.636
								c-1.874-1.757-2.811-4.171-2.811-7.241c0-3.077,0.937-5.494,2.811-7.252c1.881-1.757,4.462-2.636,7.744-2.636
								c3.281,0,5.866,0.882,7.755,2.647c1.896,1.772,2.844,4.185,2.844,7.241c0,3.07-0.941,5.483-2.822,7.241
								C225.19,76.406,222.598,77.284,219.288,77.284 M212.386,80.216c-2.96,0.729-5.268,2.107-6.923,4.134
								c-1.648,2.034-2.472,4.51-2.472,7.427c0,4.076,1.451,7.299,4.353,9.669c2.909,2.37,6.891,3.555,11.944,3.555
								c5.082,0,9.071-1.185,11.966-3.555c2.895-2.37,4.342-5.593,4.342-9.669c0-2.917-0.828-5.392-2.483-7.427
								c-1.648-2.027-3.941-3.405-6.88-4.134c3.325-0.773,5.914-2.29,7.766-4.55c1.859-2.253,2.789-5.006,2.789-8.258
								c0-4.951-1.509-8.75-4.528-11.397c-3.019-2.64-7.343-3.959-12.972-3.959c-5.622,0-9.946,1.32-12.972,3.959
								c-3.019,2.647-4.528,6.446-4.528,11.397c0,3.252,0.933,6.005,2.8,8.258C206.462,77.926,209.061,79.443,212.386,80.216
								 M209.86,91.12c0-2.64,0.824-4.699,2.472-6.18c1.655-1.48,3.974-2.22,6.956-2.22c2.968,0,5.286,0.74,6.956,2.22
								c1.677,1.48,2.516,3.54,2.516,6.18c0,2.647-0.839,4.71-2.516,6.191c-1.67,1.48-3.989,2.22-6.956,2.22
								c-2.982,0-5.301-0.74-6.956-2.22C210.684,95.831,209.86,93.767,209.86,91.12"/>
						</g>
						<g transform="translate(241.577148438 53.046875)scale(0.7)">
							<path id="BitstreamVeraSans-Roman-39_1_" d="M249.266,54.108v6.289c1.735-0.824,3.489-1.451,5.261-1.881
								c1.779-0.43,3.526-0.645,5.239-0.645c4.557,0,8.035,1.531,10.434,4.594c2.406,3.062,3.781,7.718,4.123,13.967
								c-1.32-1.961-2.997-3.467-5.031-4.517c-2.027-1.05-4.269-1.575-6.727-1.575c-5.104,0-9.144,1.542-12.119,4.627
								c-2.975,3.092-4.463,7.317-4.463,12.677c0,5.235,1.549,9.435,4.648,12.6c3.099,3.172,7.222,4.758,12.37,4.758
								c5.906,0,10.412-2.264,13.519-6.792c3.114-4.521,4.67-11.087,4.67-19.698c0-8.043-1.91-14.463-5.731-19.261
								c-3.814-4.798-8.943-7.197-15.389-7.197c-1.735,0-3.493,0.171-5.272,0.514C253.029,52.908,251.184,53.422,249.266,54.108
								 M263.004,75.742c3.099,0,5.553,1.057,7.361,3.172c1.816,2.122,2.723,5.031,2.723,8.728c0,3.668-0.908,6.566-2.723,8.695
								c-1.808,2.129-4.262,3.194-7.361,3.194s-5.553-1.065-7.361-3.194c-1.808-2.129-2.713-5.028-2.713-8.695
								c0-3.697,0.904-6.606,2.713-8.728C257.451,76.799,259.905,75.742,263.004,75.742"/>
						</g>
					</g>
				</g>
			</g>
			<g id="ytick_8">
				<g id="line2d_24">
					<g>
						<g>
							<path id="m728421d6d4_5_" stroke="#000000" stroke-width="0.5" stroke-linejoin="round" d="M72,237.37h4"/>
						</g>
					</g>
				</g>
				<g id="line2d_25">
					<g>
						<g>
							<path id="mcb0005524f_5_" stroke="#000000" stroke-width="0.5" stroke-linejoin="round" d="M518.4,237.37h-4"/>
						</g>
					</g>
				</g>
				<g id="text_15">
					<g transform="translate(31.04 241.294017679)scale(0.12 -0.12)">
						<g transform="translate(0.0 0.546875)">
							<path id="BitstreamVeraSans-Roman-31_8_" d="M12.406,8.844h16.109v55.625l-17.531-3.516v8.984l17.438,3.516h9.859V8.844
								h16.109V0.547H12.406V8.844z"/>
						</g>
						<g transform="translate(63.623046875 0.546875)">
							<path id="BitstreamVeraSans-Roman-30_15_" d="M95.404,66.953c-5.073,0-8.891-2.5-11.453-7.5
								c-2.552-4.99-3.828-12.5-3.828-22.531c0-9.99,1.276-17.484,3.828-22.484c2.563-5,6.38-7.5,11.453-7.5
								c5.115,0,8.948,2.5,11.5,7.5c2.563,5,3.844,12.495,3.844,22.484c0,10.031-1.281,17.542-3.844,22.531
								C104.352,64.453,100.519,66.953,95.404,66.953 M95.404,74.766c8.177,0,14.422-3.234,18.734-9.703
								c4.313-6.458,6.469-15.839,6.469-28.141c0-12.271-2.156-21.641-6.469-28.109c-4.312-6.458-10.557-9.688-18.734-9.688
								c-8.167,0-14.406,3.229-18.719,9.688c-4.312,6.469-6.469,15.839-6.469,28.109c0,12.302,2.156,21.682,6.469,28.141
								C80.998,71.531,87.238,74.766,95.404,74.766"/>
						</g>
						<g transform="translate(127.24609375 53.046875)scale(0.7)">
							<path id="BitstreamVeraSans-Roman-2d_5_" d="M130.67,75.02h18.419v-5.6H130.67V75.02z"/>
						</g>
						<g transform="translate(152.504882812 53.046875)scale(0.7)">
							<path id="BitstreamVeraSans-Roman-31_9_" d="M161.189,58.855h11.277v38.938l-12.272-2.461v6.289l12.206,2.461h6.902V58.855
								h11.277v-5.808h-29.389V58.855z"/>
						</g>
						<g transform="translate(197.041015625 53.046875)scale(0.7)">
							<path id="BitstreamVeraSans-Roman-36_2_" d="M220.152,81.309c-3.099,0-5.556-1.061-7.372-3.183
								c-1.808-2.115-2.712-5.017-2.712-8.706c0-3.668,0.904-6.57,2.712-8.706c1.816-2.129,4.273-3.194,7.372-3.194
								s5.553,1.065,7.361,3.194c1.808,2.136,2.713,5.039,2.713,8.706c0,3.69-0.904,6.592-2.713,8.706
								C225.705,80.248,223.251,81.309,220.152,81.309 M233.857,102.955v-6.289c-1.735,0.817-3.485,1.44-5.25,1.87
								c-1.765,0.438-3.515,0.656-5.25,0.656c-4.557,0-8.039-1.539-10.445-4.616c-2.399-3.077-3.77-7.726-4.113-13.945
								c1.342,1.983,3.026,3.504,5.053,4.561c2.034,1.057,4.269,1.586,6.705,1.586c5.126,0,9.177-1.557,12.152-4.67
								c2.975-3.106,4.463-7.335,4.463-12.688c0-5.243-1.549-9.45-4.648-12.622c-3.099-3.165-7.222-4.747-12.37-4.747
								c-5.906,0-10.42,2.26-13.541,6.781c-3.121,4.528-4.681,11.087-4.681,19.677c0,8.065,1.914,14.496,5.742,19.294
								c3.828,4.798,8.965,7.197,15.411,7.197c1.735,0,3.485-0.171,5.25-0.514C230.098,104.143,231.939,103.633,233.857,102.955"/>
						</g>
						<g transform="translate(241.577148438 53.046875)scale(0.7)">
							<path id="BitstreamVeraSans-Roman-32_5_" d="M255.008,58.855h24.095v-5.808h-32.397v5.808
								c2.618,2.713,6.187,6.351,10.708,10.916c4.528,4.572,7.372,7.521,8.531,8.848c2.209,2.479,3.752,4.579,4.627,6.3
								c0.882,1.721,1.323,3.413,1.323,5.075c0,2.713-0.952,4.922-2.855,6.628c-1.903,1.714-4.382,2.57-7.438,2.57
								c-2.166,0-4.452-0.376-6.858-1.127c-2.399-0.751-4.966-1.892-7.7-3.423v6.978c2.778,1.116,5.374,1.958,7.787,2.527
								c2.421,0.569,4.634,0.853,6.639,0.853c5.286,0,9.501-1.323,12.644-3.97c3.143-2.64,4.714-6.169,4.714-10.587
								c0-2.1-0.394-4.091-1.181-5.972c-0.78-1.874-2.209-4.087-4.288-6.639c-0.569-0.664-2.381-2.574-5.436-5.731
								C264.878,68.943,260.572,64.528,255.008,58.855"/>
						</g>
					</g>
				</g>
			</g>
			<g id="ytick_9">
				<g id="line2d_26">
					<g>
						<g>
							<path id="m728421d6d4_6_" stroke="#000000" stroke-width="0.5" stroke-linejoin="round" d="M72,212.023h4"/>
						</g>
					</g>
				</g>
				<g id="line2d_27">
					<g>
						<g>
							<path id="mcb0005524f_6_" stroke="#000000" stroke-width="0.5" stroke-linejoin="round" d="M518.4,212.023h-4"/>
						</g>
					</g>
				</g>
				<g id="text_16">
					<g transform="translate(31.04 215.947073428)scale(0.12 -0.12)">
						<g transform="translate(0.0 0.546875)">
							<path id="BitstreamVeraSans-Roman-31_10_" d="M12.406,8.844h16.109v55.625l-17.531-3.516v8.984l17.438,3.516h9.859V8.844
								h16.109V0.547H12.406V8.844z"/>
						</g>
						<g transform="translate(63.623046875 0.546875)">
							<path id="BitstreamVeraSans-Roman-30_16_" d="M95.404,66.953c-5.073,0-8.891-2.5-11.453-7.5
								c-2.552-4.99-3.828-12.5-3.828-22.531c0-9.99,1.276-17.484,3.828-22.484c2.563-5,6.38-7.5,11.453-7.5
								c5.115,0,8.948,2.5,11.5,7.5c2.563,5,3.844,12.495,3.844,22.484c0,10.031-1.281,17.542-3.844,22.531
								C104.352,64.453,100.519,66.953,95.404,66.953 M95.404,74.766c8.177,0,14.422-3.234,18.734-9.703
								c4.313-6.458,6.469-15.839,6.469-28.141c0-12.271-2.156-21.641-6.469-28.109c-4.312-6.458-10.557-9.688-18.734-9.688
								c-8.167,0-14.406,3.229-18.719,9.688c-4.312,6.469-6.469,15.839-6.469,28.109c0,12.302,2.156,21.682,6.469,28.141
								C80.998,71.531,87.238,74.766,95.404,74.766"/>
						</g>
						<g transform="translate(127.24609375 53.046875)scale(0.7)">
							<path id="BitstreamVeraSans-Roman-2d_6_" d="M130.67,75.02h18.419v-5.6H130.67V75.02z"/>
						</g>
						<g transform="translate(152.504882812 53.046875)scale(0.7)">
							<path id="BitstreamVeraSans-Roman-31_11_" d="M161.189,58.855h11.277v38.938l-12.272-2.461v6.289l12.206,2.461h6.902V58.855
								h11.277v-5.808h-29.389V58.855z"/>
						</g>
						<g transform="translate(197.041015625 53.046875)scale(0.7)">
							<path id="BitstreamVeraSans-Roman-33_1_" d="M225.446,80.566c3.303-0.707,5.881-2.18,7.733-4.419
								c1.859-2.231,2.789-4.987,2.789-8.269c0-5.031-1.732-8.929-5.195-11.692c-3.464-2.756-8.385-4.134-14.766-4.134
								c-2.136,0-4.339,0.211-6.606,0.634c-2.268,0.423-4.608,1.057-7.022,1.903v6.661c1.91-1.116,4.003-1.958,6.278-2.527
								c2.282-0.569,4.667-0.853,7.153-0.853c4.324,0,7.62,0.853,9.888,2.559c2.268,1.706,3.402,4.189,3.402,7.448
								c0,3.011-1.054,5.363-3.161,7.055c-2.107,1.699-5.039,2.548-8.794,2.548h-5.95v5.677h6.223c3.391,0,5.986,0.678,7.788,2.034
								c1.801,1.356,2.702,3.31,2.702,5.863c0,2.618-0.93,4.627-2.789,6.027c-1.852,1.407-4.51,2.111-7.973,2.111
								c-1.896,0-3.927-0.208-6.092-0.623c-2.166-0.408-4.546-1.043-7.142-1.903v6.147c2.625,0.729,5.082,1.276,7.372,1.641
								c2.29,0.365,4.448,0.547,6.475,0.547c5.243,0,9.388-1.192,12.436-3.577c3.055-2.377,4.583-5.593,4.583-9.647
								c0-2.829-0.809-5.217-2.428-7.164C230.729,82.666,228.428,81.317,225.446,80.566"/>
						</g>
						<g transform="translate(241.577148438 53.046875)scale(0.7)">
							<path id="BitstreamVeraSans-Roman-35" d="M249.135,104.081h27.103v-5.819h-20.781V85.761
								c0.999,0.343,1.998,0.598,2.997,0.766c1.006,0.168,2.012,0.252,3.019,0.252c5.695,0,10.205-1.56,13.53-4.681
								c3.332-3.121,4.998-7.346,4.998-12.677c0-5.491-1.71-9.76-5.13-12.808c-3.42-3.041-8.24-4.561-14.459-4.561
								c-2.144,0-4.328,0.182-6.551,0.547c-2.217,0.365-4.51,0.911-6.88,1.641v6.945c2.049-1.116,4.167-1.947,6.355-2.494
								c2.188-0.547,4.499-0.82,6.934-0.82c3.945,0,7.066,1.035,9.362,3.106c2.304,2.071,3.456,4.885,3.456,8.444
								c0,3.551-1.152,6.362-3.456,8.433c-2.297,2.078-5.418,3.117-9.362,3.117c-1.845,0-3.686-0.204-5.523-0.613
								c-1.83-0.408-3.701-1.046-5.611-1.914V104.081z"/>
						</g>
					</g>
				</g>
			</g>
			<g id="ytick_10">
				<g id="line2d_28">
					<g>
						<g>
							<path id="m728421d6d4_7_" stroke="#000000" stroke-width="0.5" stroke-linejoin="round" d="M72,186.676h4"/>
						</g>
					</g>
				</g>
				<g id="line2d_29">
					<g>
						<g>
							<path id="mcb0005524f_7_" stroke="#000000" stroke-width="0.5" stroke-linejoin="round" d="M518.4,186.676h-4"/>
						</g>
					</g>
				</g>
				<g id="text_17">
					<g transform="translate(31.04 190.600129177)scale(0.12 -0.12)">
						<g transform="translate(0.0 0.546875)">
							<path id="BitstreamVeraSans-Roman-31_12_" d="M12.406,8.844h16.109v55.625l-17.531-3.516v8.984l17.438,3.516h9.859V8.844
								h16.109V0.547H12.406V8.844z"/>
						</g>
						<g transform="translate(63.623046875 0.546875)">
							<path id="BitstreamVeraSans-Roman-30_17_" d="M95.404,66.953c-5.073,0-8.891-2.5-11.453-7.5
								c-2.552-4.99-3.828-12.5-3.828-22.531c0-9.99,1.276-17.484,3.828-22.484c2.563-5,6.38-7.5,11.453-7.5
								c5.115,0,8.948,2.5,11.5,7.5c2.563,5,3.844,12.495,3.844,22.484c0,10.031-1.281,17.542-3.844,22.531
								C104.352,64.453,100.519,66.953,95.404,66.953 M95.404,74.766c8.177,0,14.422-3.234,18.734-9.703
								c4.313-6.458,6.469-15.839,6.469-28.141c0-12.271-2.156-21.641-6.469-28.109c-4.312-6.458-10.557-9.688-18.734-9.688
								c-8.167,0-14.406,3.229-18.719,9.688c-4.312,6.469-6.469,15.839-6.469,28.109c0,12.302,2.156,21.682,6.469,28.141
								C80.998,71.531,87.238,74.766,95.404,74.766"/>
						</g>
						<g transform="translate(127.24609375 53.046875)scale(0.7)">
							<path id="BitstreamVeraSans-Roman-2d_7_" d="M130.67,75.02h18.419v-5.6H130.67V75.02z"/>
						</g>
						<g transform="translate(152.504882812 53.046875)scale(0.7)">
							<path id="BitstreamVeraSans-Roman-31_13_" d="M161.189,58.855h11.277v38.938l-12.272-2.461v6.289l12.206,2.461h6.902V58.855
								h11.277v-5.808h-29.389V58.855z"/>
						</g>
						<g transform="translate(197.041015625 53.046875)scale(0.7)">
							<path id="BitstreamVeraSans-Roman-30_18_" d="M219.288,99.531c-3.551,0-6.223-1.75-8.017-5.25
								c-1.786-3.493-2.68-8.75-2.68-15.772c0-6.993,0.893-12.239,2.68-15.739c1.794-3.5,4.466-5.25,8.017-5.25
								c3.58,0,6.264,1.75,8.05,5.25c1.794,3.5,2.691,8.746,2.691,15.739c0,7.022-0.897,12.279-2.691,15.772
								C225.551,97.781,222.868,99.531,219.288,99.531 M219.288,105c5.724,0,10.095-2.264,13.114-6.792
								c3.019-4.521,4.528-11.087,4.528-19.698c0-8.59-1.509-15.148-4.528-19.677c-3.019-4.521-7.39-6.781-13.114-6.781
								c-5.717,0-10.084,2.26-13.103,6.781c-3.019,4.528-4.528,11.087-4.528,19.677c0,8.611,1.509,15.178,4.528,19.698
								C209.203,102.736,213.571,105,219.288,105"/>
						</g>
						<g transform="translate(241.577148438 53.046875)scale(0.7)">
							<path id="BitstreamVeraSans-Roman-38_2_" d="M263.824,77.284c-3.281,0-5.862-0.879-7.744-2.636
								c-1.874-1.757-2.811-4.171-2.811-7.241c0-3.077,0.937-5.494,2.811-7.252c1.881-1.757,4.462-2.636,7.744-2.636
								c3.281,0,5.866,0.882,7.755,2.647c1.896,1.772,2.844,4.185,2.844,7.241c0,3.07-0.941,5.483-2.822,7.241
								C269.727,76.406,267.134,77.284,263.824,77.284 M256.922,80.216c-2.96,0.729-5.268,2.107-6.924,4.134
								c-1.648,2.034-2.472,4.51-2.472,7.427c0,4.076,1.451,7.299,4.353,9.669c2.909,2.37,6.891,3.555,11.944,3.555
								c5.082,0,9.071-1.185,11.966-3.555c2.895-2.37,4.342-5.593,4.342-9.669c0-2.917-0.828-5.392-2.483-7.427
								c-1.648-2.027-3.941-3.405-6.88-4.134c3.325-0.773,5.914-2.29,7.766-4.55c1.859-2.253,2.789-5.006,2.789-8.258
								c0-4.951-1.509-8.75-4.528-11.397c-3.019-2.64-7.343-3.959-12.972-3.959c-5.622,0-9.946,1.32-12.972,3.959
								c-3.019,2.647-4.528,6.446-4.528,11.397c0,3.252,0.933,6.005,2.8,8.258C250.998,77.926,253.597,79.443,256.922,80.216
								 M254.396,91.12c0-2.64,0.824-4.699,2.472-6.18c1.655-1.48,3.974-2.22,6.956-2.22c2.968,0,5.286,0.74,6.956,2.22
								c1.677,1.48,2.516,3.54,2.516,6.18c0,2.647-0.839,4.71-2.516,6.191c-1.67,1.48-3.989,2.22-6.956,2.22
								c-2.982,0-5.301-0.74-6.956-2.22C255.22,95.831,254.396,93.767,254.396,91.12"/>
						</g>
					</g>
				</g>
			</g>
			<g id="ytick_11">
				<g id="line2d_30">
					<g>
						<g>
							<path id="m728421d6d4_8_" stroke="#000000" stroke-width="0.5" stroke-linejoin="round" d="M72,161.329h4"/>
						</g>
					</g>
				</g>
				<g id="line2d_31">
					<g>
						<g>
							<path id="mcb0005524f_8_" stroke="#000000" stroke-width="0.5" stroke-linejoin="round" d="M518.4,161.329h-4"/>
						</g>
					</g>
				</g>
				<g id="text_18">
					<g transform="translate(36.44 165.253184926)scale(0.12 -0.12)">
						<g transform="translate(0.0 0.546875)">
							<path id="BitstreamVeraSans-Roman-31_14_" d="M12.406,8.844h16.109v55.625l-17.531-3.516v8.984l17.438,3.516h9.859V8.844
								h16.109V0.547H12.406V8.844z"/>
						</g>
						<g transform="translate(63.623046875 0.546875)">
							<path id="BitstreamVeraSans-Roman-30_19_" d="M95.404,66.953c-5.073,0-8.891-2.5-11.453-7.5
								c-2.552-4.99-3.828-12.5-3.828-22.531c0-9.99,1.276-17.484,3.828-22.484c2.563-5,6.38-7.5,11.453-7.5
								c5.115,0,8.948,2.5,11.5,7.5c2.563,5,3.844,12.495,3.844,22.484c0,10.031-1.281,17.542-3.844,22.531
								C104.352,64.453,100.519,66.953,95.404,66.953 M95.404,74.766c8.177,0,14.422-3.234,18.734-9.703
								c4.313-6.458,6.469-15.839,6.469-28.141c0-12.271-2.156-21.641-6.469-28.109c-4.312-6.458-10.557-9.688-18.734-9.688
								c-8.167,0-14.406,3.229-18.719,9.688c-4.312,6.469-6.469,15.839-6.469,28.109c0,12.302,2.156,21.682,6.469,28.141
								C80.998,71.531,87.238,74.766,95.404,74.766"/>
						</g>
						<g transform="translate(127.24609375 53.046875)scale(0.7)">
							<path id="BitstreamVeraSans-Roman-2d_8_" d="M130.67,75.02h18.419v-5.6H130.67V75.02z"/>
						</g>
						<g transform="translate(152.504882812 53.046875)scale(0.7)">
							<path id="BitstreamVeraSans-Roman-38_3_" d="M174.752,77.284c-3.281,0-5.862-0.879-7.744-2.636
								c-1.874-1.757-2.811-4.171-2.811-7.241c0-3.077,0.937-5.494,2.811-7.252c1.881-1.757,4.462-2.636,7.744-2.636
								c3.281,0,5.866,0.882,7.755,2.647c1.896,1.772,2.844,4.185,2.844,7.241c0,3.07-0.941,5.483-2.822,7.241
								C180.654,76.406,178.062,77.284,174.752,77.284 M167.85,80.216c-2.96,0.729-5.268,2.107-6.923,4.134
								c-1.648,2.034-2.472,4.51-2.472,7.427c0,4.076,1.451,7.299,4.353,9.669c2.909,2.37,6.891,3.555,11.944,3.555
								c5.082,0,9.071-1.185,11.966-3.555c2.895-2.37,4.342-5.593,4.342-9.669c0-2.917-0.828-5.392-2.483-7.427
								c-1.648-2.027-3.941-3.405-6.88-4.134c3.325-0.773,5.914-2.29,7.766-4.55c1.859-2.253,2.789-5.006,2.789-8.258
								c0-4.951-1.509-8.75-4.528-11.397c-3.019-2.64-7.343-3.959-12.972-3.959c-5.622,0-9.946,1.32-12.972,3.959
								c-3.019,2.647-4.528,6.446-4.528,11.397c0,3.252,0.933,6.005,2.8,8.258C161.926,77.926,164.525,79.443,167.85,80.216
								 M165.324,91.12c0-2.64,0.824-4.699,2.472-6.18c1.655-1.48,3.974-2.22,6.956-2.22c2.968,0,5.286,0.74,6.956,2.22
								c1.677,1.48,2.516,3.54,2.516,6.18c0,2.647-0.839,4.71-2.516,6.191c-1.67,1.48-3.989,2.22-6.956,2.22
								c-2.982,0-5.301-0.74-6.956-2.22C166.148,95.831,165.324,93.767,165.324,91.12"/>
						</g>
						<g transform="translate(197.041015625 53.046875)scale(0.7)">
							<path id="BitstreamVeraSans-Roman-31_15_" d="M205.725,58.855h11.277v38.938l-12.272-2.461v6.289l12.206,2.461h6.902V58.855
								h11.277v-5.808h-29.389V58.855z"/>
						</g>
					</g>
				</g>
			</g>
			<g id="ytick_12">
				<g id="line2d_32">
					<g>
						<g>
							<path id="m728421d6d4_9_" stroke="#000000" stroke-width="0.5" stroke-linejoin="round" d="M72,135.982h4"/>
						</g>
					</g>
				</g>
				<g id="line2d_33">
					<g>
						<g>
							<path id="mcb0005524f_9_" stroke="#000000" stroke-width="0.5" stroke-linejoin="round" d="M518.4,135.982h-4"/>
						</g>
					</g>
				</g>
				<g id="text_19">
					<g transform="translate(36.44 139.846240675)scale(0.12 -0.12)">
						<g transform="translate(0.0 0.465625)">
							<path id="BitstreamVeraSans-Roman-31_16_" d="M12.406,8.763h16.109v55.625l-17.531-3.516v8.984l17.438,3.516h9.859V8.763
								h16.109V0.466H12.406V8.763z"/>
						</g>
						<g transform="translate(63.623046875 0.465625)">
							<path id="BitstreamVeraSans-Roman-30_20_" d="M95.404,66.872c-5.073,0-8.891-2.5-11.453-7.5
								c-2.552-4.99-3.828-12.5-3.828-22.531c0-9.99,1.276-17.484,3.828-22.484c2.563-5,6.38-7.5,11.453-7.5
								c5.115,0,8.948,2.5,11.5,7.5c2.563,5,3.844,12.495,3.844,22.484c0,10.031-1.281,17.542-3.844,22.531
								C104.352,64.372,100.519,66.872,95.404,66.872 M95.404,74.684c8.177,0,14.422-3.234,18.734-9.703
								c4.313-6.458,6.469-15.839,6.469-28.141c0-12.271-2.156-21.641-6.469-28.109c-4.312-6.458-10.557-9.688-18.734-9.688
								c-8.167,0-14.406,3.229-18.719,9.688c-4.312,6.469-6.469,15.839-6.469,28.109c0,12.302,2.156,21.682,6.469,28.141
								C80.998,71.45,87.238,74.684,95.404,74.684"/>
						</g>
						<g transform="translate(127.24609375 52.965625)scale(0.7)">
							<path id="BitstreamVeraSans-Roman-2d_9_" d="M130.67,74.939h18.419v-5.6H130.67V74.939z"/>
						</g>
						<g transform="translate(152.504882812 52.965625)scale(0.7)">
							<path id="BitstreamVeraSans-Roman-35_1_" d="M160.063,104h27.103v-5.819h-20.781V85.68c0.999,0.343,1.998,0.598,2.997,0.766
								c1.006,0.168,2.012,0.252,3.019,0.252c5.695,0,10.205-1.56,13.53-4.681c3.332-3.121,4.998-7.346,4.998-12.677
								c0-5.491-1.71-9.76-5.13-12.808c-3.42-3.041-8.24-4.561-14.459-4.561c-2.144,0-4.328,0.182-6.552,0.547
								c-2.217,0.365-4.51,0.911-6.88,1.641v6.945c2.049-1.116,4.167-1.947,6.355-2.494c2.188-0.547,4.499-0.82,6.934-0.82
								c3.945,0,7.066,1.035,9.362,3.106c2.304,2.071,3.456,4.885,3.456,8.444c0,3.551-1.152,6.362-3.456,8.433
								c-2.297,2.078-5.418,3.117-9.362,3.117c-1.845,0-3.686-0.204-5.523-0.612c-1.83-0.408-3.701-1.046-5.611-1.914V104z"/>
						</g>
						<g transform="translate(197.041015625 52.965625)scale(0.7)">
							<path id="BitstreamVeraSans-Roman-34_2_" d="M223.499,97.984l-17.434-27.245h17.434V97.984z M221.683,104h8.684V70.739h7.284
								v-5.742h-7.284V52.966h-6.869v12.031h-23.034v6.661L221.683,104z"/>
						</g>
					</g>
				</g>
			</g>
			<g id="ytick_13">
				<g id="line2d_34">
					<g>
						<g>
							<path id="m728421d6d4_10_" stroke="#000000" stroke-width="0.5" stroke-linejoin="round" d="M72,110.635h4"/>
						</g>
					</g>
				</g>
				<g id="line2d_35">
					<g>
						<g>
							<path id="mcb0005524f_10_" stroke="#000000" stroke-width="0.5" stroke-linejoin="round" d="M518.4,110.635h-4"/>
						</g>
					</g>
				</g>
				<g id="text_20">
					<g transform="translate(36.44 114.559296424)scale(0.12 -0.12)">
						<g transform="translate(0.0 0.546875)">
							<path id="BitstreamVeraSans-Roman-31_17_" d="M12.406,8.844h16.109v55.625l-17.531-3.516v8.984l17.438,3.516h9.859V8.844
								h16.109V0.547H12.406V8.844z"/>
						</g>
						<g transform="translate(63.623046875 0.546875)">
							<path id="BitstreamVeraSans-Roman-30_21_" d="M95.404,66.953c-5.073,0-8.891-2.5-11.453-7.5
								c-2.552-4.99-3.828-12.5-3.828-22.531c0-9.99,1.276-17.484,3.828-22.484c2.563-5,6.38-7.5,11.453-7.5
								c5.115,0,8.948,2.5,11.5,7.5c2.563,5,3.844,12.495,3.844,22.484c0,10.031-1.281,17.542-3.844,22.531
								C104.352,64.453,100.519,66.953,95.404,66.953 M95.404,74.766c8.177,0,14.422-3.234,18.734-9.703
								c4.313-6.458,6.469-15.839,6.469-28.141c0-12.271-2.156-21.641-6.469-28.109c-4.312-6.458-10.557-9.688-18.734-9.688
								c-8.167,0-14.406,3.229-18.719,9.688c-4.312,6.469-6.469,15.839-6.469,28.109c0,12.302,2.156,21.682,6.469,28.141
								C80.998,71.531,87.238,74.766,95.404,74.766"/>
						</g>
						<g transform="translate(127.24609375 53.046875)scale(0.7)">
							<path id="BitstreamVeraSans-Roman-2d_10_" d="M130.67,75.02h18.419v-5.6H130.67V75.02z"/>
						</g>
						<g transform="translate(152.504882812 53.046875)scale(0.7)">
							<path id="BitstreamVeraSans-Roman-32_6_" d="M165.936,58.855h24.095v-5.808h-32.397v5.808
								c2.618,2.713,6.187,6.351,10.708,10.916c4.528,4.572,7.372,7.521,8.531,8.848c2.209,2.479,3.752,4.579,4.627,6.3
								c0.882,1.721,1.323,3.413,1.323,5.075c0,2.713-0.952,4.922-2.855,6.628c-1.903,1.714-4.382,2.57-7.438,2.57
								c-2.166,0-4.452-0.376-6.858-1.127c-2.399-0.751-4.966-1.892-7.7-3.423v6.978c2.778,1.116,5.374,1.958,7.787,2.527
								c2.421,0.569,4.634,0.853,6.639,0.853c5.286,0,9.501-1.323,12.644-3.97c3.143-2.64,4.714-6.169,4.714-10.587
								c0-2.1-0.394-4.091-1.181-5.972c-0.78-1.874-2.209-4.087-4.288-6.639c-0.569-0.664-2.381-2.574-5.436-5.731
								C175.805,68.943,171.5,64.528,165.936,58.855"/>
						</g>
						<g transform="translate(197.041015625 53.046875)scale(0.7)">
							<path id="BitstreamVeraSans-Roman-37_2_" d="M202.783,104.081h32.812v-2.942l-18.528-48.092h-7.208l17.434,45.216h-24.511
								V104.081z"/>
						</g>
					</g>
				</g>
			</g>
			<g id="ytick_14">
				<g id="line2d_36">
					<g>
						<g>
							<path id="m728421d6d4_11_" stroke="#000000" stroke-width="0.5" stroke-linejoin="round" d="M72,85.288h4"/>
						</g>
					</g>
				</g>
				<g id="line2d_37">
					<g>
						<g>
							<path id="mcb0005524f_11_" stroke="#000000" stroke-width="0.5" stroke-linejoin="round" d="M518.4,85.288h-4"/>
						</g>
					</g>
				</g>
				<g id="text_21">
					<g transform="translate(44.84 89.2123521728)scale(0.12 -0.12)">
						<g transform="translate(0.0 0.546875)">
							<path id="BitstreamVeraSans-Roman-31_18_" d="M12.406,8.844h16.109v55.625l-17.531-3.516v8.984l17.438,3.516h9.859V8.844
								h16.109V0.547H12.406V8.844z"/>
						</g>
						<g transform="translate(63.623046875 0.546875)">
							<path id="BitstreamVeraSans-Roman-30_22_" d="M95.404,66.953c-5.073,0-8.891-2.5-11.453-7.5
								c-2.552-4.99-3.828-12.5-3.828-22.531c0-9.99,1.276-17.484,3.828-22.484c2.563-5,6.38-7.5,11.453-7.5
								c5.115,0,8.948,2.5,11.5,7.5c2.563,5,3.844,12.495,3.844,22.484c0,10.031-1.281,17.542-3.844,22.531
								C104.352,64.453,100.519,66.953,95.404,66.953 M95.404,74.766c8.177,0,14.422-3.234,18.734-9.703
								c4.313-6.458,6.469-15.839,6.469-28.141c0-12.271-2.156-21.641-6.469-28.109c-4.312-6.458-10.557-9.688-18.734-9.688
								c-8.167,0-14.406,3.229-18.719,9.688c-4.312,6.469-6.469,15.839-6.469,28.109c0,12.302,2.156,21.682,6.469,28.141
								C80.998,71.531,87.238,74.766,95.404,74.766"/>
						</g>
						<g transform="translate(127.24609375 53.046875)scale(0.7)">
							<path id="BitstreamVeraSans-Roman-30_23_" d="M149.493,99.531c-3.551,0-6.223-1.75-8.017-5.25
								c-1.786-3.493-2.68-8.75-2.68-15.772c0-6.993,0.893-12.239,2.68-15.739c1.794-3.5,4.466-5.25,8.017-5.25
								c3.58,0,6.264,1.75,8.05,5.25c1.794,3.5,2.691,8.746,2.691,15.739c0,7.022-0.897,12.279-2.691,15.772
								C155.756,97.781,153.073,99.531,149.493,99.531 M149.493,105c5.724,0,10.095-2.264,13.114-6.792
								c3.019-4.521,4.528-11.087,4.528-19.698c0-8.59-1.509-15.148-4.528-19.677c-3.019-4.521-7.39-6.781-13.114-6.781
								c-5.717,0-10.084,2.26-13.103,6.781c-3.019,4.528-4.528,11.087-4.528,19.677c0,8.611,1.509,15.178,4.528,19.698
								C139.409,102.736,143.776,105,149.493,105"/>
						</g>
					</g>
				</g>
			</g>
			<g id="ytick_15">
				<g id="line2d_38">
					<g>
						<g>
							<path id="m728421d6d4_12_" stroke="#000000" stroke-width="0.5" stroke-linejoin="round" d="M72,59.941h4"/>
						</g>
					</g>
				</g>
				<g id="line2d_39">
					<g>
						<g>
							<path id="mcb0005524f_12_" stroke="#000000" stroke-width="0.5" stroke-linejoin="round" d="M518.4,59.941h-4"/>
						</g>
					</g>
				</g>
				<g id="text_22">
					<g transform="translate(39.44 63.8654079217)scale(0.12 -0.12)">
						<g transform="translate(0.0 0.546875)">
							<path id="BitstreamVeraSans-Roman-31_19_" d="M12.406,8.844h16.109v55.625l-17.531-3.516v8.984l17.438,3.516h9.859V8.844
								h16.109V0.547H12.406V8.844z"/>
						</g>
						<g transform="translate(63.623046875 0.546875)">
							<path id="BitstreamVeraSans-Roman-30_24_" d="M95.404,66.953c-5.073,0-8.891-2.5-11.453-7.5
								c-2.552-4.99-3.828-12.5-3.828-22.531c0-9.99,1.276-17.484,3.828-22.484c2.563-5,6.38-7.5,11.453-7.5
								c5.115,0,8.948,2.5,11.5,7.5c2.563,5,3.844,12.495,3.844,22.484c0,10.031-1.281,17.542-3.844,22.531
								C104.352,64.453,100.519,66.953,95.404,66.953 M95.404,74.766c8.177,0,14.422-3.234,18.734-9.703
								c4.313-6.458,6.469-15.839,6.469-28.141c0-12.271-2.156-21.641-6.469-28.109c-4.312-6.458-10.557-9.688-18.734-9.688
								c-8.167,0-14.406,3.229-18.719,9.688c-4.312,6.469-6.469,15.839-6.469,28.109c0,12.302,2.156,21.682,6.469,28.141
								C80.998,71.531,87.238,74.766,95.404,74.766"/>
						</g>
						<g transform="translate(127.24609375 53.046875)scale(0.7)">
							<path id="BitstreamVeraSans-Roman-32_7_" d="M140.677,58.855h24.095v-5.808h-32.397v5.808
								c2.618,2.713,6.187,6.351,10.708,10.916c4.528,4.572,7.372,7.521,8.531,8.848c2.209,2.479,3.752,4.579,4.627,6.3
								c0.882,1.721,1.323,3.413,1.323,5.075c0,2.713-0.952,4.922-2.855,6.628c-1.903,1.714-4.382,2.57-7.438,2.57
								c-2.166,0-4.452-0.376-6.858-1.127c-2.399-0.751-4.966-1.892-7.7-3.423v6.978c2.778,1.116,5.374,1.958,7.787,2.527
								c2.421,0.569,4.634,0.853,6.639,0.853c5.286,0,9.501-1.323,12.644-3.97c3.143-2.64,4.714-6.169,4.714-10.588
								c0-2.1-0.394-4.091-1.181-5.972c-0.78-1.874-2.209-4.087-4.288-6.639c-0.569-0.664-2.381-2.574-5.436-5.731
								C150.547,68.943,146.241,64.528,140.677,58.855"/>
						</g>
						<g transform="translate(171.782226562 53.046875)scale(0.7)">
							<path id="BitstreamVeraSans-Roman-37_3_" d="M177.524,104.081h32.812v-2.942l-18.528-48.092h-7.208l17.434,45.216h-24.511
								V104.081z"/>
						</g>
					</g>
				</g>
			</g>
			<g id="ytick_16">
			</g>
			<g id="ytick_17">
			</g>
			<g id="ytick_18">
				<g id="line2d_40">
					<g>
						<g>
							<path id="mf0c55a9a47" stroke="#000000" stroke-width="0.5" stroke-linejoin="round" d="M72,364.104h2"/>
						</g>
					</g>
				</g>
				<g id="line2d_41">
					<g>
						<g>
							<path id="ma4f294b3af" stroke="#000000" stroke-width="0.5" stroke-linejoin="round" d="M518.4,364.104h-2"/>
						</g>
					</g>
				</g>
			</g>
			<g id="ytick_19">
				<g id="line2d_42">
					<g>
						<g>
							<path id="mf0c55a9a47_1_" stroke="#000000" stroke-width="0.5" stroke-linejoin="round" d="M72,338.757h2"/>
						</g>
					</g>
				</g>
				<g id="line2d_43">
					<g>
						<g>
							<path id="ma4f294b3af_1_" stroke="#000000" stroke-width="0.5" stroke-linejoin="round" d="M518.4,338.757h-2"/>
						</g>
					</g>
				</g>
			</g>
			<g id="ytick_20">
				<g id="line2d_44">
					<g>
						<g>
							<path id="mf0c55a9a47_2_" stroke="#000000" stroke-width="0.5" stroke-linejoin="round" d="M72,313.41h2"/>
						</g>
					</g>
				</g>
				<g id="line2d_45">
					<g>
						<g>
							<path id="ma4f294b3af_2_" stroke="#000000" stroke-width="0.5" stroke-linejoin="round" d="M518.4,313.41h-2"/>
						</g>
					</g>
				</g>
			</g>
			<g id="ytick_21">
				<g id="line2d_46">
					<g>
						<g>
							<path id="mf0c55a9a47_3_" stroke="#000000" stroke-width="0.5" stroke-linejoin="round" d="M72,288.064h2"/>
						</g>
					</g>
				</g>
				<g id="line2d_47">
					<g>
						<g>
							<path id="ma4f294b3af_3_" stroke="#000000" stroke-width="0.5" stroke-linejoin="round" d="M518.4,288.064h-2"/>
						</g>
					</g>
				</g>
			</g>
			<g id="ytick_22">
				<g id="line2d_48">
					<g>
						<g>
							<path id="mf0c55a9a47_4_" stroke="#000000" stroke-width="0.5" stroke-linejoin="round" d="M72,262.717h2"/>
						</g>
					</g>
				</g>
				<g id="line2d_49">
					<g>
						<g>
							<path id="ma4f294b3af_4_" stroke="#000000" stroke-width="0.5" stroke-linejoin="round" d="M518.4,262.717h-2"/>
						</g>
					</g>
				</g>
			</g>
			<g id="ytick_23">
				<g id="line2d_50">
					<g>
						<g>
							<path id="mf0c55a9a47_5_" stroke="#000000" stroke-width="0.5" stroke-linejoin="round" d="M72,237.37h2"/>
						</g>
					</g>
				</g>
				<g id="line2d_51">
					<g>
						<g>
							<path id="ma4f294b3af_5_" stroke="#000000" stroke-width="0.5" stroke-linejoin="round" d="M518.4,237.37h-2"/>
						</g>
					</g>
				</g>
			</g>
			<g id="ytick_24">
				<g id="line2d_52">
					<g>
						<g>
							<path id="mf0c55a9a47_6_" stroke="#000000" stroke-width="0.5" stroke-linejoin="round" d="M72,212.023h2"/>
						</g>
					</g>
				</g>
				<g id="line2d_53">
					<g>
						<g>
							<path id="ma4f294b3af_6_" stroke="#000000" stroke-width="0.5" stroke-linejoin="round" d="M518.4,212.023h-2"/>
						</g>
					</g>
				</g>
			</g>
			<g id="ytick_25">
				<g id="line2d_54">
					<g>
						<g>
							<path id="mf0c55a9a47_7_" stroke="#000000" stroke-width="0.5" stroke-linejoin="round" d="M72,186.676h2"/>
						</g>
					</g>
				</g>
				<g id="line2d_55">
					<g>
						<g>
							<path id="ma4f294b3af_7_" stroke="#000000" stroke-width="0.5" stroke-linejoin="round" d="M518.4,186.676h-2"/>
						</g>
					</g>
				</g>
			</g>
			<g id="ytick_26">
				<g id="line2d_56">
					<g>
						<g>
							<path id="mf0c55a9a47_8_" stroke="#000000" stroke-width="0.5" stroke-linejoin="round" d="M72,161.329h2"/>
						</g>
					</g>
				</g>
				<g id="line2d_57">
					<g>
						<g>
							<path id="ma4f294b3af_8_" stroke="#000000" stroke-width="0.5" stroke-linejoin="round" d="M518.4,161.329h-2"/>
						</g>
					</g>
				</g>
			</g>
			<g id="ytick_27">
				<g id="line2d_58">
					<g>
						<g>
							<path id="mf0c55a9a47_9_" stroke="#000000" stroke-width="0.5" stroke-linejoin="round" d="M72,135.982h2"/>
						</g>
					</g>
				</g>
				<g id="line2d_59">
					<g>
						<g>
							<path id="ma4f294b3af_9_" stroke="#000000" stroke-width="0.5" stroke-linejoin="round" d="M518.4,135.982h-2"/>
						</g>
					</g>
				</g>
			</g>
			<g id="ytick_28">
				<g id="line2d_60">
					<g>
						<g>
							<path id="mf0c55a9a47_10_" stroke="#000000" stroke-width="0.5" stroke-linejoin="round" d="M72,110.635h2"/>
						</g>
					</g>
				</g>
				<g id="line2d_61">
					<g>
						<g>
							<path id="ma4f294b3af_10_" stroke="#000000" stroke-width="0.5" stroke-linejoin="round" d="M518.4,110.635h-2"/>
						</g>
					</g>
				</g>
			</g>
			<g id="ytick_29">
				<g id="line2d_62">
					<g>
						<g>
							<path id="mf0c55a9a47_11_" stroke="#000000" stroke-width="0.5" stroke-linejoin="round" d="M72,85.288h2"/>
						</g>
					</g>
				</g>
				<g id="line2d_63">
					<g>
						<g>
							<path id="ma4f294b3af_11_" stroke="#000000" stroke-width="0.5" stroke-linejoin="round" d="M518.4,85.288h-2"/>
						</g>
					</g>
				</g>
			</g>
			<g id="ytick_30">
				<g id="line2d_64">
					<g>
						<g>
							<path id="mf0c55a9a47_12_" stroke="#000000" stroke-width="0.5" stroke-linejoin="round" d="M72,59.941h2"/>
						</g>
					</g>
				</g>
				<g id="line2d_65">
					<g>
						<g>
							<path id="ma4f294b3af_12_" stroke="#000000" stroke-width="0.5" stroke-linejoin="round" d="M518.4,59.941h-2"/>
						</g>
					</g>
				</g>
			</g>
			<g id="text_23">
				<g transform="translate(23.544375 253.275)rotate(-90.0)scale(0.12 -0.12)">
					<g>
						<path id="BitstreamVeraSans-Roman-4f" d="M39.406,66.219c-7.167,0-12.859-2.672-17.078-8.016
							c-4.208-5.333-6.312-12.609-6.312-21.828c0-9.177,2.104-16.437,6.312-21.781c4.219-5.333,9.911-8,17.078-8
							c7.156,0,12.828,2.667,17.016,8c4.187,5.344,6.281,12.604,6.281,21.781c0,9.219-2.094,16.495-6.281,21.828
							C52.234,63.547,46.562,66.219,39.406,66.219 M39.406,74.219c10.219,0,18.385-3.427,24.5-10.281
							c6.125-6.854,9.188-16.042,9.188-27.562c0-11.49-3.063-20.661-9.188-27.516c-6.115-6.854-14.281-10.281-24.5-10.281
							c-10.25,0-18.448,3.417-24.594,10.25c-6.135,6.844-9.203,16.026-9.203,27.547c0,11.521,3.068,20.708,9.203,27.562
							C20.958,70.792,29.156,74.219,39.406,74.219"/>
					</g>
					<g>
						<path id="BitstreamVeraSans-Roman-75" d="M87.211,21.578v33.109h8.984V21.922c0-5.177,1.005-9.063,3.016-11.656
							c2.021-2.583,5.052-3.875,9.094-3.875c4.844,0,8.672,1.547,11.484,4.641c2.823,3.094,4.234,7.313,4.234,12.656v31h8.984V0
							h-8.984v8.406c-2.177-3.323-4.708-5.792-7.594-7.406c-2.875-1.615-6.219-2.422-10.031-2.422
							c-6.281,0-11.052,1.953-14.312,5.859C88.836,8.344,87.211,14.057,87.211,21.578"/>
					</g>
					<g>
						<path id="BitstreamVeraSans-Roman-74_3_" d="M160.402,70.219V54.687h18.5v-6.984h-18.5V18.016
							c0-4.458,0.609-7.323,1.828-8.594c1.219-1.271,3.703-1.906,7.453-1.906h9.219V0h-9.219c-6.938,0-11.724,1.292-14.359,3.875
							c-2.635,2.594-3.953,7.307-3.953,14.141v29.687h-6.594v6.984h6.594v15.531H160.402z"/>
					</g>
					<g>
						<path id="BitstreamVeraSans-Roman-63" d="M230.08,52.594v-8.406c-2.542,1.406-5.088,2.458-7.641,3.156
							c-2.552,0.698-5.13,1.047-7.734,1.047c-5.833,0-10.365-1.849-13.594-5.547c-3.219-3.688-4.828-8.87-4.828-15.547
							c0-6.677,1.609-11.865,4.828-15.562c3.229-3.688,7.76-5.531,13.594-5.531c2.604,0,5.182,0.349,7.734,1.047
							c2.552,0.698,5.099,1.75,7.641,3.156V2.094c-2.51-1.167-5.109-2.042-7.797-2.625c-2.677-0.594-5.531-0.891-8.562-0.891
							c-8.24,0-14.786,2.589-19.641,7.766c-4.844,5.177-7.266,12.161-7.266,20.953c0,8.917,2.448,15.927,7.344,21.031
							C199.064,53.443,205.783,56,214.314,56c2.76,0,5.458-0.286,8.094-0.859C225.044,54.578,227.601,53.729,230.08,52.594"/>
					</g>
					<g>
						<path id="BitstreamVeraSans-Roman-6f" d="M266.889,48.391c-4.813,0-8.62-1.88-11.422-5.641
							c-2.802-3.76-4.203-8.911-4.203-15.453s1.391-11.693,4.172-15.453c2.792-3.76,6.609-5.641,11.453-5.641
							c4.792,0,8.583,1.885,11.375,5.656c2.802,3.781,4.203,8.927,4.203,15.438c0,6.479-1.401,11.615-4.203,15.406
							C275.472,46.495,271.68,48.391,266.889,48.391 M266.889,56c7.812,0,13.948-2.542,18.406-7.625
							c4.469-5.073,6.703-12.099,6.703-21.078c0-8.948-2.234-15.974-6.703-21.078c-4.458-5.094-10.594-7.641-18.406-7.641
							c-7.844,0-13.99,2.547-18.438,7.641c-4.438,5.104-6.656,12.13-6.656,21.078c0,8.979,2.219,16.005,6.656,21.078
							C252.899,53.458,259.045,56,266.889,56"/>
					</g>
					<g>
						<path id="BitstreamVeraSans-Roman-6d_1_" d="M349.461,44.187c2.25,4.042,4.938,7.021,8.062,8.938S364.326,56,368.555,56
							c5.698,0,10.094-1.995,13.187-5.984c3.094-3.979,4.641-9.646,4.641-17V0h-9.031v32.719c0,5.24-0.932,9.125-2.797,11.656
							c-1.854,2.542-4.682,3.812-8.484,3.812c-4.656,0-8.339-1.547-11.047-4.641c-2.698-3.083-4.047-7.297-4.047-12.641V0h-9.031
							v32.719c0,5.271-0.927,9.167-2.781,11.687c-1.854,2.521-4.719,3.781-8.594,3.781c-4.594,0-8.245-1.552-10.953-4.656
							c-2.698-3.104-4.047-7.312-4.047-12.625V0h-9.031v54.688h9.031v-8.5c2.052,3.354,4.51,5.828,7.375,7.422
							C325.81,55.203,329.211,56,333.148,56c3.979,0,7.359-1.01,10.141-3.031C346.07,50.958,348.128,48.031,349.461,44.187"/>
					</g>
					<g>
						<path id="BitstreamVeraSans-Roman-65_2_" d="M451.076,29.594v-4.391h-41.312c0.396-6.187,2.26-10.901,5.594-14.141
							c3.333-3.24,7.979-4.859,13.938-4.859c3.448,0,6.792,0.422,10.031,1.266c3.24,0.844,6.458,2.115,9.656,3.812v-8.5
							c-3.229-1.365-6.537-2.406-9.922-3.125c-3.385-0.719-6.818-1.078-10.297-1.078c-8.729,0-15.641,2.536-20.734,7.609
							c-5.094,5.083-7.641,11.958-7.641,20.625c0,8.948,2.417,16.047,7.25,21.297C412.472,53.37,418.993,56,427.201,56
							c7.354,0,13.172-2.37,17.453-7.109C448.936,44.161,451.076,37.729,451.076,29.594 M442.092,32.234
							c-0.063,4.906-1.438,8.823-4.125,11.75c-2.688,2.937-6.245,4.406-10.672,4.406c-5.01,0-9.021-1.417-12.031-4.25
							c-3.01-2.833-4.745-6.823-5.203-11.969L442.092,32.234z"/>
					</g>
					<g>
						<path id="BitstreamVeraSans-Roman-20_2_" d="M456.396,0"/>
					</g>
					<g>
						<path id="BitstreamVeraSans-Roman-28_1_" d="M519.184,75.875c-4.354-7.479-7.594-14.885-9.719-22.219
							c-2.115-7.323-3.172-14.745-3.172-22.266c0-7.51,1.068-14.953,3.203-22.328c2.135-7.375,5.365-14.792,9.688-22.25h-7.812
							c-4.875,7.656-8.526,15.177-10.953,22.562c-2.427,7.385-3.641,14.724-3.641,22.016c0,7.26,1.203,14.568,3.609,21.922
							c2.417,7.365,6.078,14.885,10.984,22.562H519.184z"/>
					</g>
					<g>
						<path id="BitstreamVeraSans-Roman-24_1_" d="M560.994-14.703h-4.891L556.057,0c-3.417,0.062-6.833,0.458-10.25,1.188
							c-3.417,0.74-6.854,1.844-10.312,3.312v8.781c3.323-2.083,6.682-3.656,10.078-4.719c3.406-1.052,6.917-1.594,10.531-1.625
							v22.266c-7.198,1.167-12.432,3.151-15.703,5.953c-3.271,2.802-4.906,6.646-4.906,11.531c0,5.302,1.776,9.479,5.328,12.531
							c3.552,3.062,8.646,4.823,15.281,5.281v11.484h4.891V64.656c3.021-0.135,5.948-0.458,8.781-0.969
							c2.833-0.5,5.599-1.188,8.297-2.062v-8.547c-2.698,1.365-5.474,2.422-8.328,3.172c-2.844,0.75-5.76,1.188-8.75,1.312V36.719
							c7.385-1.135,12.818-3.172,16.297-6.109c3.49-2.927,5.234-6.927,5.234-12c0-5.5-1.849-9.839-5.547-13.016
							c-3.698-3.177-9.026-5.01-15.984-5.5V-14.703z M556.103,37.594v20.031c-3.771-0.427-6.651-1.505-8.641-3.234
							c-1.99-1.719-2.984-4.01-2.984-6.875c0-2.802,0.917-4.984,2.75-6.547C549.072,39.406,552.031,38.281,556.103,37.594
							 M560.994,28.219V7.078c4.125,0.552,7.24,1.724,9.344,3.516c2.104,1.792,3.156,4.151,3.156,7.078
							c0,2.865-1.005,5.141-3.016,6.828C568.478,26.198,565.317,27.438,560.994,28.219"/>
					</g>
					<g>
						<path id="BitstreamVeraSans-Roman-29_1_" d="M598.836,75.875h7.812c4.875-7.677,8.526-15.198,10.953-22.562
							c2.427-7.354,3.641-14.661,3.641-21.922c0-7.292-1.214-14.63-3.641-22.016c-2.427-7.385-6.078-14.906-10.953-22.562h-7.812
							c4.323,7.458,7.552,14.875,9.687,22.25c2.135,7.375,3.203,14.818,3.203,22.328c0,7.521-1.068,14.943-3.203,22.266
							C606.388,60.99,603.159,68.396,598.836,75.875"/>
					</g>
				</g>
			</g>
		</g>
		<g id="patch_3">
			<path fill="none" stroke="#000000" stroke-linejoin="round" d="M72,43.2h446.4"/>
		</g>
		<g id="patch_4">
			<path fill="none" stroke="#000000" stroke-linejoin="round" d="M518.4,388.8V43.2"/>
		</g>
		<g id="patch_5">
			<path fill="none" stroke="#000000" stroke-linejoin="round" d="M72,388.8h446.4"/>
		</g>
		<g id="patch_6">
			<path fill="none" stroke="#000000" stroke-linejoin="round" d="M72,388.8V43.2"/>
		</g>
	</g>
</g>
</svg>
