<svg xmlns="http://www.w3.org/2000/svg" xmlns:xlink="http://www.w3.org/1999/xlink" width="576" height="432" viewBox="0 0 576 432"><g><path fill="#FFF" d="M0 0v432h576V0"/><g><path fill="#FFF" d="M72 388.8h446.4V43.2H72v345.6z"/><g><defs><path id="a" d="M72 43.2H518.4V388.8H72z"/></defs><clipPath id="b"><use xlink:href="#a" overflow="visible"/></clipPath><path clip-path="url(#b)" fill="none" stroke="#00F" stroke-linecap="square" stroke-linejoin="round" d="M109.2 83.249l3.758-2.04 3.757-1.951 3.758-2.039 3.757-1.938 3.758-1.989 3.757-2.302 3.758-3.062 3.758.245 3.757-1.882 3.758-2.82 3.757-.334 3.758-1.924 3.757-1.065 3.758-1.916 3.758-1.087 3.757-.915 3.758.045 3.757-1.864 3.758-1.739 3.758.243 3.757-1.115 3.758-2.698 3.757 1.368 3.758-3.049 3.757 3.404 3.758-7.586 3.758 3.83 3.757.641 3.758 1.49 3.757 1.477 3.758-4.545 3.757.921 3.758.186 3.758-.271 3.757-.63 3.758 3.128 3.757 1.402L251.988 46l3.757 6.192 3.758-.649 3.758 1.138 3.757-2.097 3.758 3.261 3.757.897 3.758 1.169 3.757-.467 3.758.104 3.758 3.468 3.757-.868 3.758 3.748 3.757 4.241 3.758-1.053 3.758 3.718 3.757.685 3.758 3.016 3.757 3.436 3.758-.698 3.757 2.765 3.758-1.376 3.758 6.037 3.757-.78 3.758 10.891 3.757-8.067 3.758 9.998 3.757 4.175 3.758 7.266 3.758-.826 3.757-10.911 3.758 11.484 3.757 5.087 3.758 7.999 3.757-3.32 3.758 23.89 3.758-11.969 3.757 5.508 3.758 9.747 3.757-.735 3.758 16.729 3.757 13.425 3.758-.794 3.758 15.753 3.757 9.969 3.758 6.079 3.757 7.816 3.758 7.312 3.758 19.245 3.757 11.811 3.758 3.811 3.757 32.908 3.758 4.217 3.757 31.413 3.758 14.021 3.758 32.826 3.757 20.154"/></g><g><g><g><path stroke="#000" stroke-width=".5" stroke-linejoin="round" d="M105.442 388.8v-4"/></g><g><path stroke="#000" stroke-width=".5" stroke-linejoin="round" d="M105.442 43.2v4"/></g><g transform="matrix(.12 0 0 -.12 96.695 401.918)"><path d="M31.781 66.406c-5.073 0-8.891-2.5-11.453-7.5-2.552-4.99-3.828-12.5-3.828-22.531 0-9.99 1.276-17.484 3.828-22.484 2.563-5 6.38-7.5 11.453-7.5 5.115 0 8.948 2.5 11.5 7.5 2.563 5 3.844 12.495 3.844 22.484 0 10.031-1.281 17.542-3.844 22.531-2.552 5-6.385 7.5-11.5 7.5m0 7.813c8.177 0 14.422-3.234 18.734-9.703 4.313-6.458 6.469-15.839 6.469-28.141 0-12.271-2.156-21.641-6.469-28.109-4.312-6.458-10.557-9.688-18.734-9.688-8.167 0-14.406 3.229-18.719 9.688-4.312 6.468-6.468 15.838-6.468 28.109 0 12.302 2.156 21.682 6.469 28.141 4.312 6.468 10.552 9.703 18.718 9.703m42.53-61.813h10.312V0H74.311v12.406zm52.88 54c-5.073 0-8.891-2.5-11.453-7.5-2.552-4.99-3.828-12.5-3.828-22.531 0-9.99 1.276-17.484 3.828-22.484 2.563-5 6.38-7.5 11.453-7.5 5.115 0 8.948 2.5 11.5 7.5 2.563 5 3.844 12.495 3.844 22.484 0 10.031-1.281 17.542-3.844 22.531-2.552 5-6.385 7.5-11.5 7.5m0 7.813c8.177 0 14.422-3.234 18.734-9.703 4.313-6.458 6.469-15.839 6.469-28.141 0-12.271-2.156-21.641-6.469-28.109-4.312-6.458-10.557-9.688-18.734-9.688-8.167 0-14.406 3.229-18.719 9.688-4.312 6.469-6.469 15.839-6.469 28.109 0 12.302 2.156 21.682 6.469 28.141 4.313 6.468 10.553 9.703 18.719 9.703"/></g></g><g><g><path stroke="#000" stroke-width=".5" stroke-linejoin="round" d="M180.594 388.8v-4"/></g><g><path stroke="#000" stroke-width=".5" stroke-linejoin="round" d="M180.594 43.2v4"/></g><g transform="matrix(.12 0 0 -.12 172.049 401.918)"><path d="M31.781 66.406c-5.073 0-8.891-2.5-11.453-7.5-2.552-4.99-3.828-12.5-3.828-22.531 0-9.99 1.276-17.484 3.828-22.484 2.563-5 6.38-7.5 11.453-7.5 5.115 0 8.948 2.5 11.5 7.5 2.563 5 3.844 12.495 3.844 22.484 0 10.031-1.281 17.542-3.844 22.531-2.552 5-6.385 7.5-11.5 7.5m0 7.813c8.177 0 14.422-3.234 18.734-9.703 4.313-6.458 6.469-15.839 6.469-28.141 0-12.271-2.156-21.641-6.469-28.109-4.312-6.458-10.557-9.688-18.734-9.688-8.167 0-14.406 3.229-18.719 9.688-4.312 6.468-6.468 15.838-6.468 28.109 0 12.302 2.156 21.682 6.469 28.141 4.312 6.468 10.552 9.703 18.718 9.703m42.53-61.813h10.312V0H74.311v12.406zm40.287-4.109h34.422V0h-46.281v8.297c3.74 3.875 8.839 9.073 15.297 15.594 6.469 6.531 10.531 10.745 12.188 12.641 3.156 3.542 5.359 6.542 6.609 9 1.26 2.458 1.891 4.875 1.891 7.25 0 3.875-1.359 7.031-4.078 9.469-2.719 2.448-6.26 3.672-10.625 3.672-3.094 0-6.359-.536-9.797-1.609-3.427-1.073-7.094-2.703-11-4.891v9.969c3.969 1.594 7.677 2.797 11.125 3.609 3.458.813 6.62 1.219 9.484 1.219 7.552 0 13.573-1.891 18.062-5.672 4.49-3.771 6.734-8.813 6.734-15.125 0-3-.563-5.844-1.688-8.531-1.115-2.677-3.156-5.839-6.125-9.484-.812-.948-3.401-3.677-7.766-8.187-4.353-4.513-10.504-10.82-18.452-18.924"/></g></g><g><g><path stroke="#000" stroke-width=".5" stroke-linejoin="round" d="M255.745 388.8v-4"/></g><g><path stroke="#000" stroke-width=".5" stroke-linejoin="round" d="M255.745 43.2v4"/></g><g transform="matrix(.12 0 0 -.12 246.936 401.918)"><path d="M31.781 66.406c-5.073 0-8.891-2.5-11.453-7.5-2.552-4.99-3.828-12.5-3.828-22.531 0-9.99 1.276-17.484 3.828-22.484 2.563-5 6.38-7.5 11.453-7.5 5.115 0 8.948 2.5 11.5 7.5 2.563 5 3.844 12.495 3.844 22.484 0 10.031-1.281 17.542-3.844 22.531-2.552 5-6.385 7.5-11.5 7.5m0 7.813c8.177 0 14.422-3.234 18.734-9.703 4.313-6.458 6.469-15.839 6.469-28.141 0-12.271-2.156-21.641-6.469-28.109-4.312-6.458-10.557-9.688-18.734-9.688-8.167 0-14.406 3.229-18.719 9.688-4.312 6.468-6.468 15.838-6.468 28.109 0 12.302 2.156 21.682 6.469 28.141 4.312 6.468 10.552 9.703 18.718 9.703m42.53-61.813h10.312V0H74.311v12.406zm58.896 51.906L108.301 25.39h24.906v38.922zm-2.594 8.594h12.406V25.391h10.406v-8.203H143.02V0h-9.812v17.187h-32.906v9.516l30.311 46.203z"/></g></g><g><g><path stroke="#000" stroke-width=".5" stroke-linejoin="round" d="M330.897 388.8v-4"/></g><g><path stroke="#000" stroke-width=".5" stroke-linejoin="round" d="M330.897 43.2v4"/></g><g transform="matrix(.12 0 0 -.12 322.129 401.918)"><path d="M31.781 66.406c-5.073 0-8.891-2.5-11.453-7.5-2.552-4.99-3.828-12.5-3.828-22.531 0-9.99 1.276-17.484 3.828-22.484 2.563-5 6.38-7.5 11.453-7.5 5.115 0 8.948 2.5 11.5 7.5 2.563 5 3.844 12.495 3.844 22.484 0 10.031-1.281 17.542-3.844 22.531-2.552 5-6.385 7.5-11.5 7.5m0 7.813c8.177 0 14.422-3.234 18.734-9.703 4.313-6.458 6.469-15.839 6.469-28.141 0-12.271-2.156-21.641-6.469-28.109-4.312-6.458-10.557-9.688-18.734-9.688-8.167 0-14.406 3.229-18.719 9.688-4.312 6.468-6.468 15.838-6.468 28.109 0 12.302 2.156 21.682 6.469 28.141 4.312 6.468 10.552 9.703 18.718 9.703m42.53-61.813h10.312V0H74.311v12.406zm54.115 27.969c-4.427 0-7.937-1.516-10.531-4.547-2.583-3.021-3.875-7.167-3.875-12.437 0-5.24 1.292-9.385 3.875-12.437 2.594-3.042 6.104-4.562 10.531-4.562 4.427 0 7.932 1.521 10.516 4.562 2.583 3.052 3.875 7.198 3.875 12.437 0 5.271-1.292 9.417-3.875 12.437-2.584 3.031-6.089 4.547-10.516 4.547m19.578 30.922v-8.984a39.656 39.656 0 0 1-7.5 2.672 31.078 31.078 0 0 1-7.5.938c-6.51 0-11.484-2.198-14.922-6.594-3.427-4.396-5.385-11.036-5.875-19.922 1.917 2.833 4.323 5.005 7.219 6.516 2.906 1.51 6.099 2.266 9.578 2.266 7.323 0 13.109-2.224 17.359-6.672 4.25-4.437 6.375-10.479 6.375-18.125 0-7.49-2.214-13.5-6.641-18.031C141.67.84 135.779-1.42 128.425-1.42c-8.437 0-14.885 3.229-19.344 9.688-4.458 6.469-6.688 15.839-6.688 28.109 0 11.521 2.734 20.708 8.203 27.562 5.469 6.854 12.807 10.281 22.016 10.281 2.479 0 4.979-.245 7.5-.734 2.522-.491 5.152-1.22 7.892-2.189"/></g></g><g><g><path stroke="#000" stroke-width=".5" stroke-linejoin="round" d="M406.048 388.8v-4"/></g><g><path stroke="#000" stroke-width=".5" stroke-linejoin="round" d="M406.048 43.2v4"/></g><g transform="matrix(.12 0 0 -.12 397.313 401.918)"><path d="M31.781 66.406c-5.073 0-8.891-2.5-11.453-7.5-2.552-4.99-3.828-12.5-3.828-22.531 0-9.99 1.276-17.484 3.828-22.484 2.563-5 6.38-7.5 11.453-7.5 5.115 0 8.948 2.5 11.5 7.5 2.563 5 3.844 12.495 3.844 22.484 0 10.031-1.281 17.542-3.844 22.531-2.552 5-6.385 7.5-11.5 7.5m0 7.813c8.177 0 14.422-3.234 18.734-9.703 4.313-6.458 6.469-15.839 6.469-28.141 0-12.271-2.156-21.641-6.469-28.109-4.312-6.458-10.557-9.688-18.734-9.688-8.167 0-14.406 3.229-18.719 9.688-4.312 6.468-6.468 15.838-6.468 28.109 0 12.302 2.156 21.682 6.469 28.141 4.312 6.468 10.552 9.703 18.718 9.703m42.53-61.813h10.312V0H74.311v12.406zm52.88 22.219c-4.687 0-8.375-1.255-11.062-3.766-2.677-2.51-4.016-5.958-4.016-10.344 0-4.396 1.339-7.849 4.016-10.359 2.687-2.51 6.375-3.766 11.062-3.766 4.688 0 8.38 1.26 11.078 3.781 2.708 2.531 4.062 5.979 4.062 10.344 0 4.385-1.344 7.833-4.031 10.344-2.676 2.511-6.379 3.766-11.109 3.766m-9.859 4.187c-4.229 1.042-7.526 3.01-9.891 5.906-2.354 2.906-3.531 6.443-3.531 10.609 0 5.823 2.073 10.427 6.219 13.812 4.156 3.385 9.844 5.078 17.062 5.078 7.26 0 12.958-1.693 17.094-5.078 4.135-3.385 6.203-7.99 6.203-13.812 0-4.167-1.182-7.703-3.547-10.609-2.354-2.896-5.63-4.865-9.828-5.906 4.75-1.104 8.448-3.271 11.094-6.5 2.656-3.219 3.984-7.151 3.984-11.797 0-7.073-2.156-12.5-6.469-16.281-4.312-3.771-10.49-5.656-18.531-5.656-8.031 0-14.208 1.885-18.531 5.656-4.312 3.781-6.469 9.208-6.469 16.281 0 4.646 1.333 8.578 4 11.797 2.677 3.23 6.391 5.396 11.141 6.5m-3.609 15.579c0-3.771 1.177-6.713 3.531-8.828 2.365-2.115 5.677-3.172 9.937-3.172 4.24 0 7.552 1.057 9.938 3.172 2.396 2.115 3.594 5.057 3.594 8.828 0 3.781-1.198 6.729-3.594 8.844-2.385 2.115-5.698 3.172-9.938 3.172-4.26 0-7.573-1.057-9.937-3.172-2.354-2.115-3.531-5.063-3.531-8.844"/></g></g><g><g><path stroke="#000" stroke-width=".5" stroke-linejoin="round" d="M481.2 388.8v-4"/></g><g><path stroke="#000" stroke-width=".5" stroke-linejoin="round" d="M481.2 43.2v4"/></g><g transform="matrix(.12 0 0 -.12 472.716 401.918)"><path d="M12.406 8.297h16.109v55.625l-17.531-3.516v8.984l17.438 3.516h9.859V8.297H54.39V0H12.406v8.297zm61.905 4.109h10.312V0H74.311v12.406zm52.88 54c-5.073 0-8.891-2.5-11.453-7.5-2.552-4.99-3.828-12.5-3.828-22.531 0-9.99 1.276-17.484 3.828-22.484 2.563-5 6.38-7.5 11.453-7.5 5.115 0 8.948 2.5 11.5 7.5 2.563 5 3.844 12.495 3.844 22.484 0 10.031-1.281 17.542-3.844 22.531-2.552 5-6.385 7.5-11.5 7.5m0 7.813c8.177 0 14.422-3.234 18.734-9.703 4.313-6.458 6.469-15.839 6.469-28.141 0-12.271-2.156-21.641-6.469-28.109-4.312-6.458-10.557-9.688-18.734-9.688-8.167 0-14.406 3.229-18.719 9.688-4.312 6.469-6.469 15.839-6.469 28.109 0 12.302 2.156 21.682 6.469 28.141 4.313 6.468 10.553 9.703 18.719 9.703"/></g></g><g transform="matrix(.12 0 0 -.12 232.92 418.532)"><path d="M9.813 72.906h9.859V0H9.813v72.906zm74.57-39.89V0h-8.984v32.719c0 5.177-1.01 9.047-3.031 11.609-2.021 2.573-5.047 3.859-9.078 3.859-4.854 0-8.682-1.547-11.484-4.641-2.802-3.083-4.203-7.297-4.203-12.641V0H38.57v54.688h9.031v-8.5c2.156 3.292 4.688 5.75 7.594 7.375C58.112 55.187 61.477 56 65.289 56c6.281 0 11.031-1.943 14.25-5.828 3.229-3.886 4.844-9.604 4.844-17.156m17.91 21.671h8.984V0h-8.984v54.687zm0 21.297h8.984v-11.39h-8.984v11.39zm36.674-5.765V54.687h18.5v-6.984h-18.5V18.016c0-4.458.609-7.323 1.828-8.594 1.219-1.271 3.703-1.906 7.453-1.906h9.219V0h-9.219c-6.938 0-11.724 1.292-14.359 3.875-2.635 2.594-3.953 7.307-3.953 14.141v29.687h-6.594v6.984h6.594v15.531h9.031zm30.318-15.532h8.984V0h-8.984v54.687zm0 21.297h8.984v-11.39h-8.984v11.39zm52.643-48.5c-7.26 0-12.292-.828-15.094-2.484s-4.203-4.49-4.203-8.5c0-3.187 1.052-5.719 3.156-7.594 2.104-1.865 4.958-2.797 8.562-2.797 4.99 0 8.99 1.766 12 5.297 3.01 3.531 4.516 8.224 4.516 14.078v2h-8.937zm17.922 3.719V0h-8.984v8.297c-2.052-3.313-4.609-5.76-7.672-7.344-3.063-1.583-6.807-2.375-11.234-2.375-5.594 0-10.047 1.573-13.359 4.719-3.302 3.146-4.953 7.354-4.953 12.625 0 6.146 2.057 10.781 6.172 13.906 4.125 3.125 10.271 4.687 18.438 4.687h12.609v.891c0 4.135-1.359 7.333-4.078 9.594-2.719 2.26-6.536 3.391-11.453 3.391-3.125 0-6.172-.375-9.141-1.125a36.04 36.04 0 0 1-8.531-3.375v8.312c3.281 1.271 6.469 2.219 9.562 2.844 3.094.635 6.104.953 9.031.953 7.917 0 13.828-2.052 17.734-6.156 3.905-4.094 5.859-10.308 5.859-18.641m18.498 44.781h8.984V0h-8.984v75.984zm59.57-21.297h8.984V0h-8.984v54.687zm0 21.297h8.984v-11.39h-8.984v11.39zm73.252-42.968V0h-8.984v32.719c0 5.177-1.01 9.047-3.031 11.609-2.021 2.573-5.047 3.859-9.078 3.859-4.854 0-8.682-1.547-11.484-4.641-2.802-3.083-4.203-7.297-4.203-12.641V0h-9.031v54.688h9.031v-8.5c2.156 3.292 4.688 5.75 7.594 7.375 2.917 1.625 6.281 2.438 10.094 2.438 6.281 0 11.031-1.943 14.25-5.828 3.227-3.887 4.842-9.605 4.842-17.157m11.473 21.671h9.516l17.094-45.891 17.094 45.891h9.516L435.346 0h-12.203l-20.5 54.687zm112.398-25.093v-4.391h-41.312c.396-6.187 2.26-10.901 5.594-14.141 3.333-3.24 7.979-4.859 13.938-4.859 3.448 0 6.792.422 10.031 1.266 3.24.844 6.458 2.115 9.656 3.812v-8.5a54.502 54.502 0 0 0-9.922-3.125 49.427 49.427 0 0 0-10.297-1.078c-8.729 0-15.641 2.536-20.734 7.609-5.094 5.083-7.641 11.958-7.641 20.625 0 8.948 2.417 16.047 7.25 21.297C476.437 53.37 482.958 56 491.166 56c7.354 0 13.172-2.37 17.453-7.109 4.281-4.73 6.422-11.162 6.422-19.297m-8.984 2.64c-.063 4.906-1.438 8.823-4.125 11.75-2.688 2.937-6.245 4.406-10.672 4.406-5.01 0-9.021-1.417-12.031-4.25s-4.745-6.823-5.203-11.969l32.031.063zm58.586 20.844v-8.5a34.577 34.577 0 0 1-7.906 2.922 36.249 36.249 0 0 1-8.5.984c-4.458 0-7.802-.682-10.031-2.047-2.229-1.365-3.344-3.417-3.344-6.156 0-2.083.797-3.719 2.391-4.906 1.594-1.187 4.802-2.318 9.625-3.391l3.078-.688c6.375-1.365 10.906-3.292 13.594-5.781 2.688-2.49 4.031-5.964 4.031-10.422 0-5.083-2.01-9.109-6.031-12.078-4.021-2.958-9.547-4.438-16.578-4.438-2.927 0-5.979.286-9.156.859C532.637.01 529.294.865 525.783 2v9.281c3.323-1.729 6.594-3.026 9.812-3.891 3.219-.854 6.411-1.281 9.578-1.281 4.229 0 7.479.724 9.75 2.172 2.281 1.448 3.422 3.49 3.422 6.125 0 2.438-.823 4.307-2.469 5.609-1.635 1.302-5.24 2.557-10.812 3.766l-3.125.734c-5.562 1.167-9.583 2.964-12.062 5.391-2.469 2.427-3.703 5.755-3.703 9.984 0 5.146 1.823 9.115 5.469 11.906 3.646 2.802 8.823 4.203 15.531 4.203 3.312 0 6.432-.245 9.359-.734 2.938-.479 5.641-1.208 8.11-2.187m26.13 17.141V54.687h18.5v-6.984h-18.5V18.016c0-4.458.609-7.323 1.828-8.594 1.219-1.271 3.703-1.906 7.453-1.906h9.219V0h-9.219c-6.938 0-11.724 1.292-14.359 3.875-2.635 2.594-3.953 7.307-3.953 14.141v29.687h-6.594v6.984h6.594v15.531h9.031zm72.897-26.032c2.25 4.042 4.938 7.021 8.062 8.938S678.534 56 682.764 56c5.698 0 10.094-1.995 13.187-5.984 3.094-3.979 4.641-9.646 4.641-17V0h-9.031v32.719c0 5.24-.932 9.125-2.797 11.656-1.854 2.542-4.682 3.812-8.484 3.812-4.656 0-8.339-1.547-11.047-4.641-2.698-3.083-4.047-7.297-4.047-12.641V0h-9.031v32.719c0 5.271-.927 9.167-2.781 11.687-1.854 2.521-4.719 3.781-8.594 3.781-4.594 0-8.245-1.552-10.953-4.656-2.698-3.104-4.047-7.312-4.047-12.625V0h-9.031v54.688h9.031v-8.5c2.052 3.354 4.51 5.828 7.375 7.422S643.42 56 647.357 56c3.979 0 7.359-1.01 10.141-3.031 2.781-2.011 4.839-4.938 6.172-8.782m101.615-14.593v-4.391h-41.312c.396-6.187 2.26-10.901 5.594-14.141 3.333-3.24 7.979-4.859 13.938-4.859 3.448 0 6.792.422 10.031 1.266 3.24.844 6.458 2.115 9.656 3.812v-8.5a54.502 54.502 0 0 0-9.922-3.125 49.427 49.427 0 0 0-10.297-1.078c-8.729 0-15.641 2.536-20.734 7.609-5.094 5.083-7.641 11.958-7.641 20.625 0 8.948 2.417 16.047 7.25 21.297C726.681 53.37 733.202 56 741.41 56c7.354 0 13.172-2.37 17.453-7.109 4.281-4.73 6.422-11.162 6.422-19.297m-8.984 2.64c-.063 4.906-1.438 8.823-4.125 11.75-2.688 2.937-6.245 4.406-10.672 4.406-5.01 0-9.021-1.417-12.031-4.25s-4.745-6.823-5.203-11.969l32.031.063zm69.195.782V0h-8.984v32.719c0 5.177-1.01 9.047-3.031 11.609-2.021 2.573-5.047 3.859-9.078 3.859-4.854 0-8.682-1.547-11.484-4.641-2.802-3.083-4.203-7.297-4.203-12.641V0h-9.031v54.688h9.031v-8.5c2.156 3.292 4.688 5.75 7.594 7.375 2.915 1.624 6.28 2.437 10.092 2.437 6.281 0 11.031-1.943 14.25-5.828 3.229-3.886 4.844-9.604 4.844-17.156m26.801 37.203V54.687h18.5v-6.984h-18.5V18.016c0-4.458.609-7.323 1.828-8.594 1.219-1.271 3.703-1.906 7.453-1.906h9.219V0h-9.219c-6.938 0-11.724 1.292-14.359 3.875-2.635 2.594-3.953 7.307-3.953 14.141v29.687h-6.594v6.984h6.594v15.531h9.031zm83.683 5.656c-4.354-7.479-7.594-14.885-9.719-22.219-2.115-7.323-3.172-14.745-3.172-22.266 0-7.51 1.068-14.953 3.203-22.328s5.365-14.792 9.688-22.25h-7.812c-4.875 7.656-8.526 15.177-10.953 22.562-2.427 7.385-3.641 14.724-3.641 22.016 0 7.26 1.203 14.568 3.609 21.922 2.417 7.365 6.078 14.885 10.984 22.562h7.813zm41.811-90.578H972.9L972.854 0a53.61 53.61 0 0 0-10.25 1.188c-3.417.74-6.854 1.844-10.312 3.312v8.781c3.323-2.083 6.682-3.656 10.078-4.719a36.56 36.56 0 0 1 10.531-1.625v22.266c-7.198 1.167-12.432 3.151-15.703 5.953-3.271 2.802-4.906 6.646-4.906 11.531 0 5.302 1.776 9.479 5.328 12.531 3.552 3.062 8.646 4.823 15.281 5.281v11.484h4.891V64.656a66.033 66.033 0 0 0 8.781-.969 61.673 61.673 0 0 0 8.297-2.062v-8.547a42.12 42.12 0 0 1-8.328 3.172 40.846 40.846 0 0 1-8.75 1.312V36.719c7.385-1.135 12.818-3.172 16.297-6.109 3.49-2.927 5.234-6.927 5.234-12 0-5.5-1.849-9.839-5.547-13.016-3.698-3.177-9.026-5.01-15.984-5.5v-14.797zM972.9 37.594v20.031c-3.771-.427-6.651-1.505-8.641-3.234-1.99-1.719-2.984-4.01-2.984-6.875 0-2.802.917-4.984 2.75-6.547 1.844-1.563 4.802-2.688 8.875-3.375m4.891-9.375V7.078c4.125.552 7.24 1.724 9.344 3.516 2.104 1.792 3.156 4.151 3.156 7.078 0 2.865-1.005 5.141-3.016 6.828-2 1.698-5.161 2.938-9.484 3.719m37.842 47.656h7.812c4.875-7.677 8.526-15.198 10.953-22.562 2.427-7.354 3.641-14.661 3.641-21.922 0-7.292-1.214-14.63-3.641-22.016-2.427-7.385-6.078-14.906-10.953-22.562h-7.812c4.323 7.458 7.552 14.875 9.688 22.25 2.135 7.375 3.203 14.818 3.203 22.328 0 7.521-1.068 14.943-3.203 22.266-2.136 7.333-5.365 14.739-9.688 22.218"/></g></g><g><g><g><path stroke="#000" stroke-width=".5" stroke-linejoin="round" d="M72 364.104h4"/></g><g><path stroke="#000" stroke-width=".5" stroke-linejoin="round" d="M518.4 364.104h-4"/></g><g><g transform="matrix(.12 0 0 -.12 31.28 367.963)"><path d="M12.406 8.844h16.109v55.625l-17.531-3.516v8.984l17.438 3.516h9.859V8.844H54.39V.547H12.406v8.297z"/></g><g transform="matrix(.12 0 0 -.12 38.915 367.963)"><path d="M95.404 66.953c-5.073 0-8.891-2.5-11.453-7.5-2.552-4.99-3.828-12.5-3.828-22.531 0-9.99 1.276-17.484 3.828-22.484 2.563-5 6.38-7.5 11.453-7.5 5.115 0 8.948 2.5 11.5 7.5 2.563 5 3.844 12.495 3.844 22.484 0 10.031-1.281 17.542-3.844 22.531-2.552 5-6.385 7.5-11.5 7.5m0 7.813c8.177 0 14.422-3.234 18.734-9.703 4.313-6.458 6.469-15.839 6.469-28.141 0-12.271-2.156-21.641-6.469-28.109-4.312-6.458-10.557-9.688-18.734-9.688-8.167 0-14.406 3.229-18.719 9.688-4.312 6.469-6.469 15.839-6.469 28.109 0 12.302 2.156 21.682 6.469 28.141 4.313 6.468 10.553 9.703 18.719 9.703"/></g><g transform="matrix(.084 0 0 -.084 46.55 361.663)"><path d="M130.67 75.02h18.419v-5.6H130.67v5.6z"/></g><g transform="matrix(.084 0 0 -.084 49.58 361.663)"><path d="M165.936 58.855h24.095v-5.808h-32.397v5.808c2.618 2.713 6.187 6.351 10.708 10.916 4.528 4.572 7.372 7.521 8.531 8.848 2.209 2.479 3.752 4.579 4.627 6.3.882 1.721 1.323 3.413 1.323 5.075 0 2.713-.952 4.922-2.855 6.628-1.903 1.714-4.382 2.57-7.438 2.57-2.166 0-4.452-.376-6.858-1.127-2.399-.751-4.966-1.892-7.7-3.423v6.978c2.778 1.116 5.374 1.958 7.787 2.527 2.421.569 4.634.853 6.639.853 5.286 0 9.501-1.323 12.644-3.97 3.143-2.64 4.714-6.169 4.714-10.587 0-2.1-.394-4.091-1.181-5.972-.78-1.874-2.209-4.087-4.288-6.639-.569-.664-2.381-2.574-5.436-5.731a2369.47 2369.47 0 0 0-12.915-13.246"/></g><g transform="matrix(.084 0 0 -.084 54.778 361.663)"><path d="M203.505 54.108v6.289a27.203 27.203 0 0 1 5.261-1.881 22.254 22.254 0 0 1 5.239-.645c4.557 0 8.035 1.531 10.434 4.594 2.406 3.063 3.781 7.718 4.123 13.967-1.32-1.961-2.997-3.467-5.031-4.517-2.027-1.05-4.269-1.575-6.727-1.575-5.104 0-9.144 1.542-12.119 4.627-2.975 3.092-4.463 7.317-4.463 12.677 0 5.235 1.549 9.435 4.648 12.6 3.099 3.172 7.222 4.758 12.37 4.758 5.906 0 10.412-2.264 13.519-6.792 3.114-4.521 4.67-11.087 4.67-19.698 0-8.043-1.91-14.463-5.731-19.261-3.814-4.798-8.943-7.197-15.389-7.197-1.735 0-3.493.171-5.272.514-1.769.34-3.614.854-5.532 1.54m13.738 21.634c3.099 0 5.553 1.057 7.361 3.172 1.816 2.122 2.723 5.031 2.723 8.728 0 3.668-.908 6.566-2.723 8.695-1.808 2.129-4.262 3.194-7.361 3.194s-5.553-1.065-7.361-3.194c-1.808-2.129-2.713-5.028-2.713-8.695 0-3.697.904-6.606 2.713-8.728 1.808-2.115 4.262-3.172 7.361-3.172"/></g><g transform="matrix(.084 0 0 -.084 60.122 361.663)"><path d="M246.094 104.081h32.812v-2.942l-18.528-48.092h-7.208l17.434 45.216h-24.511v5.818z"/></g></g></g><g><g><path stroke="#000" stroke-width=".5" stroke-linejoin="round" d="M72 338.757h4"/></g><g><path stroke="#000" stroke-width=".5" stroke-linejoin="round" d="M518.4 338.757h-4"/></g><g><g transform="matrix(.12 0 0 -.12 31.04 342.616)"><path d="M12.406 8.844h16.109v55.625l-17.531-3.516v8.984l17.438 3.516h9.859V8.844H54.39V.547H12.406v8.297z"/></g><g transform="matrix(.12 0 0 -.12 38.675 342.616)"><path d="M95.404 66.953c-5.073 0-8.891-2.5-11.453-7.5-2.552-4.99-3.828-12.5-3.828-22.531 0-9.99 1.276-17.484 3.828-22.484 2.563-5 6.38-7.5 11.453-7.5 5.115 0 8.948 2.5 11.5 7.5 2.563 5 3.844 12.495 3.844 22.484 0 10.031-1.281 17.542-3.844 22.531-2.552 5-6.385 7.5-11.5 7.5m0 7.813c8.177 0 14.422-3.234 18.734-9.703 4.313-6.458 6.469-15.839 6.469-28.141 0-12.271-2.156-21.641-6.469-28.109-4.312-6.458-10.557-9.688-18.734-9.688-8.167 0-14.406 3.229-18.719 9.688-4.312 6.469-6.469 15.839-6.469 28.109 0 12.302 2.156 21.682 6.469 28.141 4.313 6.468 10.553 9.703 18.719 9.703"/></g><g transform="matrix(.084 0 0 -.084 46.31 336.316)"><path d="M130.67 75.02h18.419v-5.6H130.67v5.6z"/></g><g transform="matrix(.084 0 0 -.084 49.34 336.316)"><path d="M165.936 58.855h24.095v-5.808h-32.397v5.808c2.618 2.713 6.187 6.351 10.708 10.916 4.528 4.572 7.372 7.521 8.531 8.848 2.209 2.479 3.752 4.579 4.627 6.3.882 1.721 1.323 3.413 1.323 5.075 0 2.713-.952 4.922-2.855 6.628-1.903 1.714-4.382 2.57-7.438 2.57-2.166 0-4.452-.376-6.858-1.127-2.399-.751-4.966-1.892-7.7-3.423v6.978c2.778 1.116 5.374 1.958 7.787 2.527 2.421.569 4.634.853 6.639.853 5.286 0 9.501-1.323 12.644-3.97 3.143-2.64 4.714-6.169 4.714-10.588 0-2.1-.394-4.091-1.181-5.972-.78-1.874-2.209-4.087-4.288-6.639-.569-.664-2.381-2.574-5.436-5.731a2411.845 2411.845 0 0 0-12.915-13.245"/></g><g transform="matrix(.084 0 0 -.084 54.685 336.316)"><path d="M202.783 104.081h32.812v-2.942l-18.528-48.092h-7.208l17.434 45.216h-24.511v5.818z"/></g><g transform="matrix(.084 0 0 -.084 60.03 336.316)"><path d="M263.824 99.531c-3.551 0-6.223-1.75-8.017-5.25-1.786-3.493-2.68-8.75-2.68-15.772 0-6.993.893-12.239 2.68-15.739 1.794-3.5 4.466-5.25 8.017-5.25 3.58 0 6.264 1.75 8.05 5.25 1.794 3.5 2.691 8.746 2.691 15.739 0 7.022-.897 12.279-2.691 15.772-1.786 3.5-4.47 5.25-8.05 5.25m0 5.469c5.724 0 10.095-2.264 13.114-6.792 3.019-4.521 4.528-11.087 4.528-19.698 0-8.59-1.509-15.148-4.528-19.677-3.019-4.521-7.39-6.781-13.114-6.781-5.717 0-10.084 2.26-13.103 6.781-3.019 4.528-4.528 11.087-4.528 19.677 0 8.611 1.509 15.178 4.528 19.698 3.019 4.528 7.386 6.792 13.103 6.792"/></g></g></g><g><g><path stroke="#000" stroke-width=".5" stroke-linejoin="round" d="M72 313.41h4"/></g><g><path stroke="#000" stroke-width=".5" stroke-linejoin="round" d="M518.4 313.41h-4"/></g><g><g transform="matrix(.12 0 0 -.12 31.04 317.27)"><path d="M12.406 8.844h16.109v55.625l-17.531-3.516v8.984l17.438 3.516h9.859V8.844H54.39V.547H12.406v8.297z"/></g><g transform="matrix(.12 0 0 -.12 38.675 317.27)"><path d="M95.404 66.953c-5.073 0-8.891-2.5-11.453-7.5-2.552-4.99-3.828-12.5-3.828-22.531 0-9.99 1.276-17.484 3.828-22.484 2.563-5 6.38-7.5 11.453-7.5 5.115 0 8.948 2.5 11.5 7.5 2.563 5 3.844 12.495 3.844 22.484 0 10.031-1.281 17.542-3.844 22.531-2.552 5-6.385 7.5-11.5 7.5m0 7.813c8.177 0 14.422-3.234 18.734-9.703 4.313-6.458 6.469-15.839 6.469-28.141 0-12.271-2.156-21.641-6.469-28.109-4.312-6.458-10.557-9.688-18.734-9.688-8.167 0-14.406 3.229-18.719 9.688-4.312 6.469-6.469 15.839-6.469 28.109 0 12.302 2.156 21.682 6.469 28.141 4.313 6.468 10.553 9.703 18.719 9.703"/></g><g transform="matrix(.084 0 0 -.084 46.31 310.97)"><path d="M130.67 75.02h18.419v-5.6H130.67v5.6z"/></g><g transform="matrix(.084 0 0 -.084 49.34 310.97)"><path d="M165.936 58.855h24.095v-5.808h-32.397v5.808c2.618 2.713 6.187 6.351 10.708 10.916 4.528 4.572 7.372 7.521 8.531 8.848 2.209 2.479 3.752 4.579 4.627 6.3.882 1.721 1.323 3.413 1.323 5.075 0 2.713-.952 4.922-2.855 6.628-1.903 1.714-4.382 2.57-7.438 2.57-2.166 0-4.452-.376-6.858-1.127-2.399-.751-4.966-1.892-7.7-3.423v6.978c2.778 1.116 5.374 1.958 7.787 2.527 2.421.569 4.634.853 6.639.853 5.286 0 9.501-1.323 12.644-3.97 3.143-2.64 4.714-6.169 4.714-10.587 0-2.1-.394-4.091-1.181-5.972-.78-1.874-2.209-4.087-4.288-6.639-.569-.664-2.381-2.574-5.436-5.731a2369.47 2369.47 0 0 0-12.915-13.246"/></g><g transform="matrix(.084 0 0 -.084 54.685 310.97)"><path d="M223.499 98.066L206.064 70.82h17.434v27.246zm-1.816 6.015h8.684V70.82h7.284v-5.742h-7.284V53.047h-6.869v12.031h-23.034v6.661l21.219 32.342z"/></g><g transform="matrix(.084 0 0 -.084 60.03 310.97)"><path d="M269.982 80.566c3.303-.707 5.881-2.18 7.733-4.419 1.859-2.231 2.789-4.987 2.789-8.269 0-5.031-1.732-8.929-5.195-11.692-3.464-2.756-8.385-4.134-14.766-4.134-2.137 0-4.339.211-6.606.634-2.268.423-4.608 1.057-7.022 1.903v6.661c1.91-1.116 4.003-1.958 6.278-2.527 2.282-.569 4.667-.853 7.153-.853 4.324 0 7.62.853 9.888 2.559 2.268 1.706 3.402 4.189 3.402 7.448 0 3.011-1.054 5.363-3.161 7.055-2.107 1.699-5.038 2.548-8.794 2.548h-5.95v5.677h6.223c3.391 0 5.986.678 7.787 2.034 1.801 1.356 2.702 3.31 2.702 5.862 0 2.618-.93 4.627-2.789 6.027-1.852 1.407-4.51 2.111-7.973 2.111-1.896 0-3.927-.208-6.092-.623-2.166-.408-4.546-1.043-7.142-1.903v6.147c2.625.729 5.082 1.276 7.372 1.641s4.448.547 6.475.547c5.243 0 9.388-1.192 12.436-3.577 3.055-2.377 4.583-5.593 4.583-9.647 0-2.829-.809-5.217-2.428-7.164-1.62-1.946-3.921-3.295-6.903-4.046"/></g></g></g><g><g><path stroke="#000" stroke-width=".5" stroke-linejoin="round" d="M72 288.064h4"/></g><g><path stroke="#000" stroke-width=".5" stroke-linejoin="round" d="M518.4 288.064h-4"/></g><g><g transform="matrix(.12 0 0 -.12 31.04 291.922)"><path d="M12.406 8.844h16.109v55.625l-17.531-3.516v8.984l17.438 3.516h9.859V8.844H54.39V.547H12.406v8.297z"/></g><g transform="matrix(.12 0 0 -.12 38.675 291.922)"><path d="M95.404 66.953c-5.073 0-8.891-2.5-11.453-7.5-2.552-4.99-3.828-12.5-3.828-22.531 0-9.99 1.276-17.484 3.828-22.484 2.563-5 6.38-7.5 11.453-7.5 5.115 0 8.948 2.5 11.5 7.5 2.563 5 3.844 12.495 3.844 22.484 0 10.031-1.281 17.542-3.844 22.531-2.552 5-6.385 7.5-11.5 7.5m0 7.813c8.177 0 14.422-3.234 18.734-9.703 4.313-6.458 6.469-15.839 6.469-28.141 0-12.271-2.156-21.641-6.469-28.109-4.312-6.458-10.557-9.688-18.734-9.688-8.167 0-14.406 3.229-18.719 9.688-4.312 6.469-6.469 15.839-6.469 28.109 0 12.302 2.156 21.682 6.469 28.141 4.313 6.468 10.553 9.703 18.719 9.703"/></g><g transform="matrix(.084 0 0 -.084 46.31 285.622)"><path d="M130.67 75.02h18.419v-5.6H130.67v5.6z"/></g><g transform="matrix(.084 0 0 -.084 49.34 285.622)"><path d="M165.936 58.855h24.095v-5.808h-32.397v5.808c2.618 2.713 6.187 6.351 10.708 10.916 4.528 4.572 7.372 7.521 8.531 8.848 2.209 2.479 3.752 4.579 4.627 6.3.882 1.721 1.323 3.413 1.323 5.075 0 2.713-.952 4.922-2.855 6.628-1.903 1.714-4.382 2.57-7.438 2.57-2.166 0-4.452-.376-6.858-1.127-2.399-.751-4.966-1.892-7.7-3.423v6.978c2.778 1.116 5.374 1.958 7.787 2.527 2.421.569 4.634.853 6.639.853 5.286 0 9.501-1.323 12.644-3.97 3.143-2.64 4.714-6.169 4.714-10.588 0-2.1-.394-4.091-1.181-5.972-.78-1.874-2.209-4.087-4.288-6.639-.569-.664-2.381-2.574-5.436-5.731a2411.845 2411.845 0 0 0-12.915-13.245"/></g><g transform="matrix(.084 0 0 -.084 54.685 285.622)"><path d="M205.725 58.855h11.277v38.938l-12.272-2.461v6.289l12.206 2.461h6.902V58.855h11.277v-5.808h-29.389v5.808z"/></g><g transform="matrix(.084 0 0 -.084 60.03 285.622)"><path d="M264.688 81.309c-3.099 0-5.556-1.061-7.372-3.183-1.808-2.115-2.712-5.017-2.712-8.706 0-3.668.904-6.57 2.712-8.706 1.816-2.129 4.273-3.194 7.372-3.194s5.553 1.065 7.361 3.194c1.808 2.136 2.712 5.039 2.712 8.706 0 3.69-.904 6.592-2.712 8.706-1.808 2.122-4.262 3.183-7.361 3.183m13.705 21.646v-6.289a27.7 27.7 0 0 1-5.25 1.87 21.732 21.732 0 0 1-5.25.656c-4.557 0-8.039-1.539-10.445-4.616-2.399-3.077-3.77-7.726-4.113-13.945 1.342 1.983 3.026 3.504 5.053 4.561 2.034 1.057 4.269 1.586 6.705 1.586 5.126 0 9.177-1.557 12.152-4.67 2.975-3.106 4.462-7.335 4.462-12.687 0-5.243-1.549-9.45-4.648-12.622-3.099-3.165-7.222-4.747-12.37-4.747-5.906 0-10.42 2.26-13.541 6.781-3.121 4.528-4.681 11.087-4.681 19.677 0 8.065 1.914 14.496 5.742 19.294 3.828 4.798 8.965 7.197 15.411 7.197 1.735 0 3.485-.171 5.25-.514a39.027 39.027 0 0 0 5.523-1.532"/></g></g></g><g><g><path stroke="#000" stroke-width=".5" stroke-linejoin="round" d="M72 262.717h4"/></g><g><path stroke="#000" stroke-width=".5" stroke-linejoin="round" d="M518.4 262.717h-4"/></g><g><g transform="matrix(.12 0 0 -.12 31.04 266.575)"><path d="M12.406 8.844h16.109v55.625l-17.531-3.516v8.984l17.438 3.516h9.859V8.844H54.39V.547H12.406v8.297z"/></g><g transform="matrix(.12 0 0 -.12 38.675 266.575)"><path d="M95.404 66.953c-5.073 0-8.891-2.5-11.453-7.5-2.552-4.99-3.828-12.5-3.828-22.531 0-9.99 1.276-17.484 3.828-22.484 2.563-5 6.38-7.5 11.453-7.5 5.115 0 8.948 2.5 11.5 7.5 2.563 5 3.844 12.495 3.844 22.484 0 10.031-1.281 17.542-3.844 22.531-2.552 5-6.385 7.5-11.5 7.5m0 7.813c8.177 0 14.422-3.234 18.734-9.703 4.313-6.458 6.469-15.839 6.469-28.141 0-12.271-2.156-21.641-6.469-28.109-4.312-6.458-10.557-9.688-18.734-9.688-8.167 0-14.406 3.229-18.719 9.688-4.312 6.469-6.469 15.839-6.469 28.109 0 12.302 2.156 21.682 6.469 28.141 4.313 6.468 10.553 9.703 18.719 9.703"/></g><g transform="matrix(.084 0 0 -.084 46.31 260.275)"><path d="M130.67 75.02h18.419v-5.6H130.67v5.6z"/></g><g transform="matrix(.084 0 0 -.084 49.34 260.275)"><path d="M161.189 58.855h11.277v38.938l-12.272-2.461v6.289l12.206 2.461h6.902V58.855h11.277v-5.808H161.19v5.808z"/></g><g transform="matrix(.084 0 0 -.084 54.685 260.275)"><path d="M219.288 77.284c-3.281 0-5.862-.879-7.744-2.636-1.874-1.757-2.811-4.171-2.811-7.241 0-3.077.937-5.494 2.811-7.252 1.881-1.757 4.462-2.636 7.744-2.636 3.281 0 5.866.882 7.755 2.647 1.896 1.772 2.844 4.185 2.844 7.241 0 3.07-.941 5.483-2.822 7.241-1.875 1.758-4.467 2.636-7.777 2.636m-6.902 2.932c-2.96.729-5.268 2.107-6.923 4.134-1.648 2.034-2.472 4.51-2.472 7.427 0 4.076 1.451 7.299 4.353 9.669 2.909 2.37 6.891 3.555 11.944 3.555 5.082 0 9.071-1.185 11.966-3.555 2.895-2.37 4.342-5.593 4.342-9.669 0-2.917-.828-5.392-2.483-7.427-1.648-2.027-3.941-3.405-6.88-4.134 3.325-.773 5.914-2.29 7.766-4.55 1.859-2.253 2.789-5.006 2.789-8.258 0-4.951-1.509-8.75-4.528-11.397-3.019-2.64-7.343-3.959-12.972-3.959-5.622 0-9.946 1.32-12.972 3.959-3.019 2.647-4.528 6.446-4.528 11.397 0 3.252.933 6.005 2.8 8.258 1.874 2.26 4.473 3.777 7.798 4.55M209.86 91.12c0-2.64.824-4.699 2.472-6.18 1.655-1.48 3.974-2.22 6.956-2.22 2.968 0 5.286.74 6.956 2.22 1.677 1.48 2.516 3.54 2.516 6.18 0 2.647-.839 4.71-2.516 6.191-1.67 1.48-3.989 2.22-6.956 2.22-2.982 0-5.301-.74-6.956-2.22-1.648-1.48-2.472-3.544-2.472-6.191"/></g><g transform="matrix(.084 0 0 -.084 60.03 260.275)"><path d="M249.266 54.108v6.289a27.203 27.203 0 0 1 5.261-1.881 22.254 22.254 0 0 1 5.239-.645c4.557 0 8.035 1.531 10.434 4.594 2.406 3.062 3.781 7.718 4.123 13.967-1.32-1.961-2.997-3.467-5.031-4.517-2.027-1.05-4.269-1.575-6.727-1.575-5.104 0-9.144 1.542-12.119 4.627-2.975 3.092-4.463 7.317-4.463 12.677 0 5.235 1.549 9.435 4.648 12.6 3.099 3.172 7.222 4.758 12.37 4.758 5.906 0 10.412-2.264 13.519-6.792 3.114-4.521 4.67-11.087 4.67-19.698 0-8.043-1.91-14.463-5.731-19.261-3.814-4.798-8.943-7.197-15.389-7.197-1.735 0-3.493.171-5.272.514-1.769.34-3.614.854-5.532 1.54m13.738 21.634c3.099 0 5.553 1.057 7.361 3.172 1.816 2.122 2.723 5.031 2.723 8.728 0 3.668-.908 6.566-2.723 8.695-1.808 2.129-4.262 3.194-7.361 3.194s-5.553-1.065-7.361-3.194c-1.808-2.129-2.713-5.028-2.713-8.695 0-3.697.904-6.606 2.713-8.728 1.808-2.115 4.262-3.172 7.361-3.172"/></g></g></g><g><g><path stroke="#000" stroke-width=".5" stroke-linejoin="round" d="M72 237.37h4"/></g><g><path stroke="#000" stroke-width=".5" stroke-linejoin="round" d="M518.4 237.37h-4"/></g><g><g transform="matrix(.12 0 0 -.12 31.04 241.228)"><path d="M12.406 8.844h16.109v55.625l-17.531-3.516v8.984l17.438 3.516h9.859V8.844H54.39V.547H12.406v8.297z"/></g><g transform="matrix(.12 0 0 -.12 38.675 241.228)"><path d="M95.404 66.953c-5.073 0-8.891-2.5-11.453-7.5-2.552-4.99-3.828-12.5-3.828-22.531 0-9.99 1.276-17.484 3.828-22.484 2.563-5 6.38-7.5 11.453-7.5 5.115 0 8.948 2.5 11.5 7.5 2.563 5 3.844 12.495 3.844 22.484 0 10.031-1.281 17.542-3.844 22.531-2.552 5-6.385 7.5-11.5 7.5m0 7.813c8.177 0 14.422-3.234 18.734-9.703 4.313-6.458 6.469-15.839 6.469-28.141 0-12.271-2.156-21.641-6.469-28.109-4.312-6.458-10.557-9.688-18.734-9.688-8.167 0-14.406 3.229-18.719 9.688-4.312 6.469-6.469 15.839-6.469 28.109 0 12.302 2.156 21.682 6.469 28.141 4.313 6.468 10.553 9.703 18.719 9.703"/></g><g transform="matrix(.084 0 0 -.084 46.31 234.928)"><path d="M130.67 75.02h18.419v-5.6H130.67v5.6z"/></g><g transform="matrix(.084 0 0 -.084 49.34 234.928)"><path d="M161.189 58.855h11.277v38.938l-12.272-2.461v6.289l12.206 2.461h6.902V58.855h11.277v-5.808H161.19v5.808z"/></g><g transform="matrix(.084 0 0 -.084 54.685 234.928)"><path d="M220.152 81.309c-3.099 0-5.556-1.061-7.372-3.183-1.808-2.115-2.712-5.017-2.712-8.706 0-3.668.904-6.57 2.712-8.706 1.816-2.129 4.273-3.194 7.372-3.194s5.553 1.065 7.361 3.194c1.808 2.136 2.713 5.039 2.713 8.706 0 3.69-.904 6.592-2.713 8.706-1.808 2.122-4.262 3.183-7.361 3.183m13.705 21.646v-6.289a27.7 27.7 0 0 1-5.25 1.87 21.732 21.732 0 0 1-5.25.656c-4.557 0-8.039-1.539-10.445-4.616-2.399-3.077-3.77-7.726-4.113-13.945 1.342 1.983 3.026 3.504 5.053 4.561 2.034 1.057 4.269 1.586 6.705 1.586 5.126 0 9.177-1.557 12.152-4.67 2.975-3.106 4.463-7.335 4.463-12.688 0-5.243-1.549-9.45-4.648-12.622-3.099-3.165-7.222-4.747-12.37-4.747-5.906 0-10.42 2.26-13.541 6.781-3.121 4.528-4.681 11.087-4.681 19.677 0 8.065 1.914 14.496 5.742 19.294 3.828 4.798 8.965 7.197 15.411 7.197 1.735 0 3.485-.171 5.25-.514a38.91 38.91 0 0 0 5.522-1.531"/></g><g transform="matrix(.084 0 0 -.084 60.03 234.928)"><path d="M255.008 58.855h24.095v-5.808h-32.397v5.808c2.618 2.713 6.187 6.351 10.708 10.916 4.528 4.572 7.372 7.521 8.531 8.848 2.209 2.479 3.752 4.579 4.627 6.3.882 1.721 1.323 3.413 1.323 5.075 0 2.713-.952 4.922-2.855 6.628-1.903 1.714-4.382 2.57-7.438 2.57-2.166 0-4.452-.376-6.858-1.127-2.399-.751-4.966-1.892-7.7-3.423v6.978c2.778 1.116 5.374 1.958 7.787 2.527 2.421.569 4.634.853 6.639.853 5.286 0 9.501-1.323 12.644-3.97 3.143-2.64 4.714-6.169 4.714-10.587 0-2.1-.394-4.091-1.181-5.972-.78-1.874-2.209-4.087-4.288-6.639-.569-.664-2.381-2.574-5.436-5.731a2334.004 2334.004 0 0 0-12.915-13.246"/></g></g></g><g><g><path stroke="#000" stroke-width=".5" stroke-linejoin="round" d="M72 212.023h4"/></g><g><path stroke="#000" stroke-width=".5" stroke-linejoin="round" d="M518.4 212.023h-4"/></g><g><g transform="matrix(.12 0 0 -.12 31.04 215.881)"><path d="M12.406 8.844h16.109v55.625l-17.531-3.516v8.984l17.438 3.516h9.859V8.844H54.39V.547H12.406v8.297z"/></g><g transform="matrix(.12 0 0 -.12 38.675 215.881)"><path d="M95.404 66.953c-5.073 0-8.891-2.5-11.453-7.5-2.552-4.99-3.828-12.5-3.828-22.531 0-9.99 1.276-17.484 3.828-22.484 2.563-5 6.38-7.5 11.453-7.5 5.115 0 8.948 2.5 11.5 7.5 2.563 5 3.844 12.495 3.844 22.484 0 10.031-1.281 17.542-3.844 22.531-2.552 5-6.385 7.5-11.5 7.5m0 7.813c8.177 0 14.422-3.234 18.734-9.703 4.313-6.458 6.469-15.839 6.469-28.141 0-12.271-2.156-21.641-6.469-28.109-4.312-6.458-10.557-9.688-18.734-9.688-8.167 0-14.406 3.229-18.719 9.688-4.312 6.469-6.469 15.839-6.469 28.109 0 12.302 2.156 21.682 6.469 28.141 4.313 6.468 10.553 9.703 18.719 9.703"/></g><g transform="matrix(.084 0 0 -.084 46.31 209.581)"><path d="M130.67 75.02h18.419v-5.6H130.67v5.6z"/></g><g transform="matrix(.084 0 0 -.084 49.34 209.581)"><path d="M161.189 58.855h11.277v38.938l-12.272-2.461v6.289l12.206 2.461h6.902V58.855h11.277v-5.808H161.19v5.808z"/></g><g transform="matrix(.084 0 0 -.084 54.685 209.581)"><path d="M225.446 80.566c3.303-.707 5.881-2.18 7.733-4.419 1.859-2.231 2.789-4.987 2.789-8.269 0-5.031-1.732-8.929-5.195-11.692-3.464-2.756-8.385-4.134-14.766-4.134-2.136 0-4.339.211-6.606.634-2.268.423-4.608 1.057-7.022 1.903v6.661c1.91-1.116 4.003-1.958 6.278-2.527 2.282-.569 4.667-.853 7.153-.853 4.324 0 7.62.853 9.888 2.559 2.268 1.706 3.402 4.189 3.402 7.448 0 3.011-1.054 5.363-3.161 7.055-2.107 1.699-5.039 2.548-8.794 2.548h-5.95v5.677h6.223c3.391 0 5.986.678 7.788 2.034 1.801 1.356 2.702 3.31 2.702 5.863 0 2.618-.93 4.627-2.789 6.027-1.852 1.407-4.51 2.111-7.973 2.111-1.896 0-3.927-.208-6.092-.623-2.166-.408-4.546-1.043-7.142-1.903v6.147c2.625.729 5.082 1.276 7.372 1.641s4.448.547 6.475.547c5.243 0 9.388-1.192 12.436-3.577 3.055-2.377 4.583-5.593 4.583-9.647 0-2.829-.809-5.217-2.428-7.164-1.621-1.947-3.922-3.296-6.904-4.047"/></g><g transform="matrix(.084 0 0 -.084 60.03 209.581)"><path d="M249.135 104.081h27.103v-5.819h-20.781V85.761a18.296 18.296 0 0 0 6.016 1.018c5.695 0 10.205-1.56 13.53-4.681 3.332-3.121 4.998-7.346 4.998-12.677 0-5.491-1.71-9.76-5.13-12.808-3.42-3.041-8.24-4.561-14.459-4.561-2.144 0-4.328.182-6.551.547-2.217.365-4.51.911-6.88 1.641v6.945a26.871 26.871 0 0 1 6.355-2.494c2.188-.547 4.499-.82 6.934-.82 3.945 0 7.066 1.035 9.362 3.106 2.304 2.071 3.456 4.885 3.456 8.444 0 3.551-1.152 6.362-3.456 8.433-2.297 2.078-5.418 3.117-9.362 3.117-1.845 0-3.686-.204-5.523-.613-1.83-.408-3.701-1.046-5.611-1.914v25.637z"/></g></g></g><g><g><path stroke="#000" stroke-width=".5" stroke-linejoin="round" d="M72 186.676h4"/></g><g><path stroke="#000" stroke-width=".5" stroke-linejoin="round" d="M518.4 186.676h-4"/></g><g><g transform="matrix(.12 0 0 -.12 31.04 190.535)"><path d="M12.406 8.844h16.109v55.625l-17.531-3.516v8.984l17.438 3.516h9.859V8.844H54.39V.547H12.406v8.297z"/></g><g transform="matrix(.12 0 0 -.12 38.675 190.535)"><path d="M95.404 66.953c-5.073 0-8.891-2.5-11.453-7.5-2.552-4.99-3.828-12.5-3.828-22.531 0-9.99 1.276-17.484 3.828-22.484 2.563-5 6.38-7.5 11.453-7.5 5.115 0 8.948 2.5 11.5 7.5 2.563 5 3.844 12.495 3.844 22.484 0 10.031-1.281 17.542-3.844 22.531-2.552 5-6.385 7.5-11.5 7.5m0 7.813c8.177 0 14.422-3.234 18.734-9.703 4.313-6.458 6.469-15.839 6.469-28.141 0-12.271-2.156-21.641-6.469-28.109-4.312-6.458-10.557-9.688-18.734-9.688-8.167 0-14.406 3.229-18.719 9.688-4.312 6.469-6.469 15.839-6.469 28.109 0 12.302 2.156 21.682 6.469 28.141 4.313 6.468 10.553 9.703 18.719 9.703"/></g><g transform="matrix(.084 0 0 -.084 46.31 184.235)"><path d="M130.67 75.02h18.419v-5.6H130.67v5.6z"/></g><g transform="matrix(.084 0 0 -.084 49.34 184.235)"><path d="M161.189 58.855h11.277v38.938l-12.272-2.461v6.289l12.206 2.461h6.902V58.855h11.277v-5.808H161.19v5.808z"/></g><g transform="matrix(.084 0 0 -.084 54.685 184.235)"><path d="M219.288 99.531c-3.551 0-6.223-1.75-8.017-5.25-1.786-3.493-2.68-8.75-2.68-15.772 0-6.993.893-12.239 2.68-15.739 1.794-3.5 4.466-5.25 8.017-5.25 3.58 0 6.264 1.75 8.05 5.25 1.794 3.5 2.691 8.746 2.691 15.739 0 7.022-.897 12.279-2.691 15.772-1.787 3.5-4.47 5.25-8.05 5.25m0 5.469c5.724 0 10.095-2.264 13.114-6.792 3.019-4.521 4.528-11.087 4.528-19.698 0-8.59-1.509-15.148-4.528-19.677-3.019-4.521-7.39-6.781-13.114-6.781-5.717 0-10.084 2.26-13.103 6.781-3.019 4.528-4.528 11.087-4.528 19.677 0 8.611 1.509 15.178 4.528 19.698 3.018 4.528 7.386 6.792 13.103 6.792"/></g><g transform="matrix(.084 0 0 -.084 60.03 184.235)"><path d="M263.824 77.284c-3.281 0-5.862-.879-7.744-2.636-1.874-1.757-2.811-4.171-2.811-7.241 0-3.077.937-5.494 2.811-7.252 1.881-1.757 4.462-2.636 7.744-2.636 3.281 0 5.866.882 7.755 2.647 1.896 1.772 2.844 4.185 2.844 7.241 0 3.07-.941 5.483-2.822 7.241-1.874 1.758-4.467 2.636-7.777 2.636m-6.902 2.932c-2.96.729-5.268 2.107-6.924 4.134-1.648 2.034-2.472 4.51-2.472 7.427 0 4.076 1.451 7.299 4.353 9.669 2.909 2.37 6.891 3.555 11.944 3.555 5.082 0 9.071-1.185 11.966-3.555 2.895-2.37 4.342-5.593 4.342-9.669 0-2.917-.828-5.392-2.483-7.427-1.648-2.027-3.941-3.405-6.88-4.134 3.325-.773 5.914-2.29 7.766-4.55 1.859-2.253 2.789-5.006 2.789-8.258 0-4.951-1.509-8.75-4.528-11.397-3.019-2.64-7.343-3.959-12.972-3.959-5.622 0-9.946 1.32-12.972 3.959-3.019 2.647-4.528 6.446-4.528 11.397 0 3.252.933 6.005 2.8 8.258 1.875 2.26 4.474 3.777 7.799 4.55m-2.526 10.904c0-2.64.824-4.699 2.472-6.18 1.655-1.48 3.974-2.22 6.956-2.22 2.968 0 5.286.74 6.956 2.22 1.677 1.48 2.516 3.54 2.516 6.18 0 2.647-.839 4.71-2.516 6.191-1.67 1.48-3.989 2.22-6.956 2.22-2.982 0-5.301-.74-6.956-2.22-1.648-1.48-2.472-3.544-2.472-6.191"/></g></g></g><g><g><path stroke="#000" stroke-width=".5" stroke-linejoin="round" d="M72 161.329h4"/></g><g><path stroke="#000" stroke-width=".5" stroke-linejoin="round" d="M518.4 161.329h-4"/></g><g><g transform="matrix(.12 0 0 -.12 36.44 165.188)"><path d="M12.406 8.844h16.109v55.625l-17.531-3.516v8.984l17.438 3.516h9.859V8.844H54.39V.547H12.406v8.297z"/></g><g transform="matrix(.12 0 0 -.12 44.075 165.188)"><path d="M95.404 66.953c-5.073 0-8.891-2.5-11.453-7.5-2.552-4.99-3.828-12.5-3.828-22.531 0-9.99 1.276-17.484 3.828-22.484 2.563-5 6.38-7.5 11.453-7.5 5.115 0 8.948 2.5 11.5 7.5 2.563 5 3.844 12.495 3.844 22.484 0 10.031-1.281 17.542-3.844 22.531-2.552 5-6.385 7.5-11.5 7.5m0 7.813c8.177 0 14.422-3.234 18.734-9.703 4.313-6.458 6.469-15.839 6.469-28.141 0-12.271-2.156-21.641-6.469-28.109-4.312-6.458-10.557-9.688-18.734-9.688-8.167 0-14.406 3.229-18.719 9.688-4.312 6.469-6.469 15.839-6.469 28.109 0 12.302 2.156 21.682 6.469 28.141 4.313 6.468 10.553 9.703 18.719 9.703"/></g><g transform="matrix(.084 0 0 -.084 51.71 158.888)"><path d="M130.67 75.02h18.419v-5.6H130.67v5.6z"/></g><g transform="matrix(.084 0 0 -.084 54.74 158.888)"><path d="M174.752 77.284c-3.281 0-5.862-.879-7.744-2.636-1.874-1.757-2.811-4.171-2.811-7.241 0-3.077.937-5.494 2.811-7.252 1.881-1.757 4.462-2.636 7.744-2.636 3.281 0 5.866.882 7.755 2.647 1.896 1.772 2.844 4.185 2.844 7.241 0 3.07-.941 5.483-2.822 7.241-1.875 1.758-4.467 2.636-7.777 2.636m-6.902 2.932c-2.96.729-5.268 2.107-6.923 4.134-1.648 2.034-2.472 4.51-2.472 7.427 0 4.076 1.451 7.299 4.353 9.669 2.909 2.37 6.891 3.555 11.944 3.555 5.082 0 9.071-1.185 11.966-3.555 2.895-2.37 4.342-5.593 4.342-9.669 0-2.917-.828-5.392-2.483-7.427-1.648-2.027-3.941-3.405-6.88-4.134 3.325-.773 5.914-2.29 7.766-4.55 1.859-2.253 2.789-5.006 2.789-8.258 0-4.951-1.509-8.75-4.528-11.397-3.019-2.64-7.343-3.959-12.972-3.959-5.622 0-9.946 1.32-12.972 3.959-3.019 2.647-4.528 6.446-4.528 11.397 0 3.252.933 6.005 2.8 8.258 1.874 2.26 4.473 3.777 7.798 4.55m-2.526 10.904c0-2.64.824-4.699 2.472-6.18 1.655-1.48 3.974-2.22 6.956-2.22 2.968 0 5.286.74 6.956 2.22 1.677 1.48 2.516 3.54 2.516 6.18 0 2.647-.839 4.71-2.516 6.191-1.67 1.48-3.989 2.22-6.956 2.22-2.982 0-5.301-.74-6.956-2.22-1.648-1.48-2.472-3.544-2.472-6.191"/></g><g transform="matrix(.084 0 0 -.084 60.085 158.888)"><path d="M205.725 58.855h11.277v38.938l-12.272-2.461v6.289l12.206 2.461h6.902V58.855h11.277v-5.808h-29.389v5.808z"/></g></g></g><g><g><path stroke="#000" stroke-width=".5" stroke-linejoin="round" d="M72 135.982h4"/></g><g><path stroke="#000" stroke-width=".5" stroke-linejoin="round" d="M518.4 135.982h-4"/></g><g><g transform="matrix(.12 0 0 -.12 36.44 139.79)"><path d="M12.406 8.763h16.109v55.625l-17.531-3.516v8.984l17.438 3.516h9.859V8.763H54.39V.466H12.406v8.297z"/></g><g transform="matrix(.12 0 0 -.12 44.075 139.79)"><path d="M95.404 66.872c-5.073 0-8.891-2.5-11.453-7.5-2.552-4.99-3.828-12.5-3.828-22.531 0-9.99 1.276-17.484 3.828-22.484 2.563-5 6.38-7.5 11.453-7.5 5.115 0 8.948 2.5 11.5 7.5 2.563 5 3.844 12.495 3.844 22.484 0 10.031-1.281 17.542-3.844 22.531-2.552 5-6.385 7.5-11.5 7.5m0 7.812c8.177 0 14.422-3.234 18.734-9.703 4.313-6.458 6.469-15.839 6.469-28.141 0-12.271-2.156-21.641-6.469-28.109-4.312-6.458-10.557-9.688-18.734-9.688-8.167 0-14.406 3.229-18.719 9.688-4.312 6.469-6.469 15.839-6.469 28.109 0 12.302 2.156 21.682 6.469 28.141 4.313 6.469 10.553 9.703 18.719 9.703"/></g><g transform="matrix(.084 0 0 -.084 51.71 133.49)"><path d="M130.67 74.939h18.419v-5.6H130.67v5.6z"/></g><g transform="matrix(.084 0 0 -.084 54.74 133.49)"><path d="M160.063 104h27.103v-5.819h-20.781V85.68a18.296 18.296 0 0 0 6.016 1.018c5.695 0 10.205-1.56 13.53-4.681 3.332-3.121 4.998-7.346 4.998-12.677 0-5.491-1.71-9.76-5.13-12.808-3.42-3.041-8.24-4.561-14.459-4.561-2.144 0-4.328.182-6.552.547-2.217.365-4.51.911-6.88 1.641v6.945a26.871 26.871 0 0 1 6.355-2.494c2.188-.547 4.499-.82 6.934-.82 3.945 0 7.066 1.035 9.362 3.106 2.304 2.071 3.456 4.885 3.456 8.444 0 3.551-1.152 6.362-3.456 8.433-2.297 2.078-5.418 3.117-9.362 3.117-1.845 0-3.686-.204-5.523-.612-1.83-.408-3.701-1.046-5.611-1.914V104z"/></g><g transform="matrix(.084 0 0 -.084 60.085 133.49)"><path d="M223.499 97.984l-17.434-27.245h17.434v27.245zM221.683 104h8.684V70.739h7.284v-5.742h-7.284V52.966h-6.869v12.031h-23.034v6.661L221.683 104z"/></g></g></g><g><g><path stroke="#000" stroke-width=".5" stroke-linejoin="round" d="M72 110.635h4"/></g><g><path stroke="#000" stroke-width=".5" stroke-linejoin="round" d="M518.4 110.635h-4"/></g><g><g transform="matrix(.12 0 0 -.12 36.44 114.494)"><path d="M12.406 8.844h16.109v55.625l-17.531-3.516v8.984l17.438 3.516h9.859V8.844H54.39V.547H12.406v8.297z"/></g><g transform="matrix(.12 0 0 -.12 44.075 114.494)"><path d="M95.404 66.953c-5.073 0-8.891-2.5-11.453-7.5-2.552-4.99-3.828-12.5-3.828-22.531 0-9.99 1.276-17.484 3.828-22.484 2.563-5 6.38-7.5 11.453-7.5 5.115 0 8.948 2.5 11.5 7.5 2.563 5 3.844 12.495 3.844 22.484 0 10.031-1.281 17.542-3.844 22.531-2.552 5-6.385 7.5-11.5 7.5m0 7.813c8.177 0 14.422-3.234 18.734-9.703 4.313-6.458 6.469-15.839 6.469-28.141 0-12.271-2.156-21.641-6.469-28.109-4.312-6.458-10.557-9.688-18.734-9.688-8.167 0-14.406 3.229-18.719 9.688-4.312 6.469-6.469 15.839-6.469 28.109 0 12.302 2.156 21.682 6.469 28.141 4.313 6.468 10.553 9.703 18.719 9.703"/></g><g transform="matrix(.084 0 0 -.084 51.71 108.194)"><path d="M130.67 75.02h18.419v-5.6H130.67v5.6z"/></g><g transform="matrix(.084 0 0 -.084 54.74 108.194)"><path d="M165.936 58.855h24.095v-5.808h-32.397v5.808c2.618 2.713 6.187 6.351 10.708 10.916 4.528 4.572 7.372 7.521 8.531 8.848 2.209 2.479 3.752 4.579 4.627 6.3.882 1.721 1.323 3.413 1.323 5.075 0 2.713-.952 4.922-2.855 6.628-1.903 1.714-4.382 2.57-7.438 2.57-2.166 0-4.452-.376-6.858-1.127-2.399-.751-4.966-1.892-7.7-3.423v6.978c2.778 1.116 5.374 1.958 7.787 2.527 2.421.569 4.634.853 6.639.853 5.286 0 9.501-1.323 12.644-3.97 3.143-2.64 4.714-6.169 4.714-10.587 0-2.1-.394-4.091-1.181-5.972-.78-1.874-2.209-4.087-4.288-6.639-.569-.664-2.381-2.574-5.436-5.731a2369.47 2369.47 0 0 0-12.915-13.246"/></g><g transform="matrix(.084 0 0 -.084 60.085 108.194)"><path d="M202.783 104.081h32.812v-2.942l-18.528-48.092h-7.208l17.434 45.216h-24.511v5.818z"/></g></g></g><g><g><path stroke="#000" stroke-width=".5" stroke-linejoin="round" d="M72 85.288h4"/></g><g><path stroke="#000" stroke-width=".5" stroke-linejoin="round" d="M518.4 85.288h-4"/></g><g><g transform="matrix(.12 0 0 -.12 44.84 89.147)"><path d="M12.406 8.844h16.109v55.625l-17.531-3.516v8.984l17.438 3.516h9.859V8.844H54.39V.547H12.406v8.297z"/></g><g transform="matrix(.12 0 0 -.12 52.475 89.147)"><path d="M95.404 66.953c-5.073 0-8.891-2.5-11.453-7.5-2.552-4.99-3.828-12.5-3.828-22.531 0-9.99 1.276-17.484 3.828-22.484 2.563-5 6.38-7.5 11.453-7.5 5.115 0 8.948 2.5 11.5 7.5 2.563 5 3.844 12.495 3.844 22.484 0 10.031-1.281 17.542-3.844 22.531-2.552 5-6.385 7.5-11.5 7.5m0 7.813c8.177 0 14.422-3.234 18.734-9.703 4.313-6.458 6.469-15.839 6.469-28.141 0-12.271-2.156-21.641-6.469-28.109-4.312-6.458-10.557-9.688-18.734-9.688-8.167 0-14.406 3.229-18.719 9.688-4.312 6.469-6.469 15.839-6.469 28.109 0 12.302 2.156 21.682 6.469 28.141 4.313 6.468 10.553 9.703 18.719 9.703"/></g><g transform="matrix(.084 0 0 -.084 60.11 82.847)"><path d="M149.493 99.531c-3.551 0-6.223-1.75-8.017-5.25-1.786-3.493-2.68-8.75-2.68-15.772 0-6.993.893-12.239 2.68-15.739 1.794-3.5 4.466-5.25 8.017-5.25 3.58 0 6.264 1.75 8.05 5.25 1.794 3.5 2.691 8.746 2.691 15.739 0 7.022-.897 12.279-2.691 15.772-1.787 3.5-4.47 5.25-8.05 5.25m0 5.469c5.724 0 10.095-2.264 13.114-6.792 3.019-4.521 4.528-11.087 4.528-19.698 0-8.59-1.509-15.148-4.528-19.677-3.019-4.521-7.39-6.781-13.114-6.781-5.717 0-10.084 2.26-13.103 6.781-3.019 4.528-4.528 11.087-4.528 19.677 0 8.611 1.509 15.178 4.528 19.698 3.019 4.528 7.386 6.792 13.103 6.792"/></g></g></g><g><g><path stroke="#000" stroke-width=".5" stroke-linejoin="round" d="M72 59.941h4"/></g><g><path stroke="#000" stroke-width=".5" stroke-linejoin="round" d="M518.4 59.941h-4"/></g><g><g transform="matrix(.12 0 0 -.12 39.44 63.8)"><path d="M12.406 8.844h16.109v55.625l-17.531-3.516v8.984l17.438 3.516h9.859V8.844H54.39V.547H12.406v8.297z"/></g><g transform="matrix(.12 0 0 -.12 47.075 63.8)"><path d="M95.404 66.953c-5.073 0-8.891-2.5-11.453-7.5-2.552-4.99-3.828-12.5-3.828-22.531 0-9.99 1.276-17.484 3.828-22.484 2.563-5 6.38-7.5 11.453-7.5 5.115 0 8.948 2.5 11.5 7.5 2.563 5 3.844 12.495 3.844 22.484 0 10.031-1.281 17.542-3.844 22.531-2.552 5-6.385 7.5-11.5 7.5m0 7.813c8.177 0 14.422-3.234 18.734-9.703 4.313-6.458 6.469-15.839 6.469-28.141 0-12.271-2.156-21.641-6.469-28.109-4.312-6.458-10.557-9.688-18.734-9.688-8.167 0-14.406 3.229-18.719 9.688-4.312 6.469-6.469 15.839-6.469 28.109 0 12.302 2.156 21.682 6.469 28.141 4.313 6.468 10.553 9.703 18.719 9.703"/></g><g transform="matrix(.084 0 0 -.084 54.71 57.5)"><path d="M140.677 58.855h24.095v-5.808h-32.397v5.808c2.618 2.713 6.187 6.351 10.708 10.916 4.528 4.572 7.372 7.521 8.531 8.848 2.209 2.479 3.752 4.579 4.627 6.3.882 1.721 1.323 3.413 1.323 5.075 0 2.713-.952 4.922-2.855 6.628-1.903 1.714-4.382 2.57-7.438 2.57-2.166 0-4.452-.376-6.858-1.127-2.399-.751-4.966-1.892-7.7-3.423v6.978c2.778 1.116 5.374 1.958 7.787 2.527 2.421.569 4.634.853 6.639.853 5.286 0 9.501-1.323 12.644-3.97 3.143-2.64 4.714-6.169 4.714-10.588 0-2.1-.394-4.091-1.181-5.972-.78-1.874-2.209-4.087-4.288-6.639-.569-.664-2.381-2.574-5.436-5.731a2375.108 2375.108 0 0 0-12.915-13.245"/></g><g transform="matrix(.084 0 0 -.084 60.054 57.5)"><path d="M177.524 104.081h32.812v-2.942l-18.528-48.092H184.6l17.434 45.216h-24.511v5.818z"/></g></g></g><g><g><path stroke="#000" stroke-width=".5" stroke-linejoin="round" d="M72 364.104h2"/></g><g><path stroke="#000" stroke-width=".5" stroke-linejoin="round" d="M518.4 364.104h-2"/></g></g><g><g><path stroke="#000" stroke-width=".5" stroke-linejoin="round" d="M72 338.757h2"/></g><g><path stroke="#000" stroke-width=".5" stroke-linejoin="round" d="M518.4 338.757h-2"/></g></g><g><g><path stroke="#000" stroke-width=".5" stroke-linejoin="round" d="M72 313.41h2"/></g><g><path stroke="#000" stroke-width=".5" stroke-linejoin="round" d="M518.4 313.41h-2"/></g></g><g><g><path stroke="#000" stroke-width=".5" stroke-linejoin="round" d="M72 288.064h2"/></g><g><path stroke="#000" stroke-width=".5" stroke-linejoin="round" d="M518.4 288.064h-2"/></g></g><g><g><path stroke="#000" stroke-width=".5" stroke-linejoin="round" d="M72 262.717h2"/></g><g><path stroke="#000" stroke-width=".5" stroke-linejoin="round" d="M518.4 262.717h-2"/></g></g><g><g><path stroke="#000" stroke-width=".5" stroke-linejoin="round" d="M72 237.37h2"/></g><g><path stroke="#000" stroke-width=".5" stroke-linejoin="round" d="M518.4 237.37h-2"/></g></g><g><g><path stroke="#000" stroke-width=".5" stroke-linejoin="round" d="M72 212.023h2"/></g><g><path stroke="#000" stroke-width=".5" stroke-linejoin="round" d="M518.4 212.023h-2"/></g></g><g><g><path stroke="#000" stroke-width=".5" stroke-linejoin="round" d="M72 186.676h2"/></g><g><path stroke="#000" stroke-width=".5" stroke-linejoin="round" d="M518.4 186.676h-2"/></g></g><g><g><path stroke="#000" stroke-width=".5" stroke-linejoin="round" d="M72 161.329h2"/></g><g><path stroke="#000" stroke-width=".5" stroke-linejoin="round" d="M518.4 161.329h-2"/></g></g><g><g><path stroke="#000" stroke-width=".5" stroke-linejoin="round" d="M72 135.982h2"/></g><g><path stroke="#000" stroke-width=".5" stroke-linejoin="round" d="M518.4 135.982h-2"/></g></g><g><g><path stroke="#000" stroke-width=".5" stroke-linejoin="round" d="M72 110.635h2"/></g><g><path stroke="#000" stroke-width=".5" stroke-linejoin="round" d="M518.4 110.635h-2"/></g></g><g><g><path stroke="#000" stroke-width=".5" stroke-linejoin="round" d="M72 85.288h2"/></g><g><path stroke="#000" stroke-width=".5" stroke-linejoin="round" d="M518.4 85.288h-2"/></g></g><g><g><path stroke="#000" stroke-width=".5" stroke-linejoin="round" d="M72 59.941h2"/></g><g><path stroke="#000" stroke-width=".5" stroke-linejoin="round" d="M518.4 59.941h-2"/></g></g><g transform="matrix(0 -.12 -.12 0 23.544 253.275)"><path d="M39.406 66.219c-7.167 0-12.859-2.672-17.078-8.016-4.208-5.333-6.312-12.609-6.312-21.828 0-9.177 2.104-16.437 6.312-21.781 4.219-5.333 9.911-8 17.078-8 7.156 0 12.828 2.667 17.016 8 4.187 5.344 6.281 12.604 6.281 21.781 0 9.219-2.094 16.495-6.281 21.828-4.188 5.344-9.86 8.016-17.016 8.016m0 8c10.219 0 18.385-3.427 24.5-10.281 6.125-6.854 9.188-16.042 9.188-27.562 0-11.49-3.063-20.661-9.188-27.516-6.115-6.854-14.281-10.281-24.5-10.281-10.25 0-18.448 3.417-24.594 10.25-6.135 6.844-9.203 16.026-9.203 27.547s3.068 20.708 9.203 27.562c6.146 6.854 14.344 10.281 24.594 10.281m47.805-52.641v33.109h8.984V21.922c0-5.177 1.005-9.063 3.016-11.656 2.021-2.583 5.052-3.875 9.094-3.875 4.844 0 8.672 1.547 11.484 4.641 2.823 3.094 4.234 7.313 4.234 12.656v31h8.984V0h-8.984v8.406c-2.177-3.323-4.708-5.792-7.594-7.406-2.875-1.615-6.219-2.422-10.031-2.422-6.281 0-11.052 1.953-14.312 5.859-3.25 3.907-4.875 9.62-4.875 17.141m73.191 48.641V54.687h18.5v-6.984h-18.5V18.016c0-4.458.609-7.323 1.828-8.594 1.219-1.271 3.703-1.906 7.453-1.906h9.219V0h-9.219c-6.938 0-11.724 1.292-14.359 3.875-2.635 2.594-3.953 7.307-3.953 14.141v29.687h-6.594v6.984h6.594v15.531h9.031zm69.678-17.625v-8.406c-2.542 1.406-5.088 2.458-7.641 3.156a29.191 29.191 0 0 1-7.734 1.047c-5.833 0-10.365-1.849-13.594-5.547-3.219-3.688-4.828-8.87-4.828-15.547 0-6.677 1.609-11.865 4.828-15.562 3.229-3.688 7.76-5.531 13.594-5.531 2.604 0 5.182.349 7.734 1.047 2.552.698 5.099 1.75 7.641 3.156V2.094a37.084 37.084 0 0 0-7.797-2.625c-2.677-.594-5.531-.891-8.562-.891-8.24 0-14.786 2.589-19.641 7.766-4.844 5.177-7.266 12.161-7.266 20.953 0 8.917 2.448 15.927 7.344 21.031C199.064 53.443 205.783 56 214.314 56c2.76 0 5.458-.286 8.094-.859a36.884 36.884 0 0 0 7.672-2.547m36.809-4.203c-4.813 0-8.62-1.88-11.422-5.641-2.802-3.76-4.203-8.911-4.203-15.453s1.391-11.693 4.172-15.453c2.792-3.76 6.609-5.641 11.453-5.641 4.792 0 8.583 1.885 11.375 5.656 2.802 3.781 4.203 8.927 4.203 15.438 0 6.479-1.401 11.615-4.203 15.406-2.792 3.792-6.584 5.688-11.375 5.688m0 7.609c7.812 0 13.948-2.542 18.406-7.625 4.469-5.073 6.703-12.099 6.703-21.078 0-8.948-2.234-15.974-6.703-21.078-4.458-5.094-10.594-7.641-18.406-7.641-7.844 0-13.99 2.547-18.438 7.641-4.438 5.104-6.656 12.13-6.656 21.078 0 8.979 2.219 16.005 6.656 21.078C252.899 53.458 259.045 56 266.889 56m82.572-11.813c2.25 4.042 4.938 7.021 8.062 8.938S364.326 56 368.555 56c5.698 0 10.094-1.995 13.187-5.984 3.094-3.979 4.641-9.646 4.641-17V0h-9.031v32.719c0 5.24-.932 9.125-2.797 11.656-1.854 2.542-4.682 3.812-8.484 3.812-4.656 0-8.339-1.547-11.047-4.641-2.698-3.083-4.047-7.297-4.047-12.641V0h-9.031v32.719c0 5.271-.927 9.167-2.781 11.687-1.854 2.521-4.719 3.781-8.594 3.781-4.594 0-8.245-1.552-10.953-4.656-2.698-3.104-4.047-7.312-4.047-12.625V0h-9.031v54.688h9.031v-8.5c2.052 3.354 4.51 5.828 7.375 7.422 2.864 1.593 6.265 2.39 10.202 2.39 3.979 0 7.359-1.01 10.141-3.031 2.781-2.011 4.839-4.938 6.172-8.782m101.615-14.593v-4.391h-41.312c.396-6.187 2.26-10.901 5.594-14.141 3.333-3.24 7.979-4.859 13.938-4.859 3.448 0 6.792.422 10.031 1.266 3.24.844 6.458 2.115 9.656 3.812v-8.5a54.527 54.527 0 0 0-9.922-3.125 49.427 49.427 0 0 0-10.297-1.078c-8.729 0-15.641 2.536-20.734 7.609-5.094 5.083-7.641 11.958-7.641 20.625 0 8.948 2.417 16.047 7.25 21.297C412.472 53.37 418.993 56 427.201 56c7.354 0 13.172-2.37 17.453-7.109 4.282-4.73 6.422-11.162 6.422-19.297m-8.984 2.64c-.063 4.906-1.438 8.823-4.125 11.75-2.688 2.937-6.245 4.406-10.672 4.406-5.01 0-9.021-1.417-12.031-4.25s-4.745-6.823-5.203-11.969l32.031.063zm77.092 43.641c-4.354-7.479-7.594-14.885-9.719-22.219-2.115-7.323-3.172-14.745-3.172-22.266 0-7.51 1.068-14.953 3.203-22.328s5.365-14.792 9.688-22.25h-7.812c-4.875 7.656-8.526 15.177-10.953 22.562-2.427 7.385-3.641 14.724-3.641 22.016 0 7.26 1.203 14.568 3.609 21.922 2.417 7.365 6.078 14.885 10.984 22.562h7.813zm41.81-90.578h-4.891L556.057 0a53.61 53.61 0 0 0-10.25 1.188c-3.417.74-6.854 1.844-10.312 3.312v8.781c3.323-2.083 6.682-3.656 10.078-4.719a36.56 36.56 0 0 1 10.531-1.625v22.266c-7.198 1.167-12.432 3.151-15.703 5.953-3.271 2.802-4.906 6.646-4.906 11.531 0 5.302 1.776 9.479 5.328 12.531 3.552 3.062 8.646 4.823 15.281 5.281v11.484h4.891V64.656a66.033 66.033 0 0 0 8.781-.969 61.673 61.673 0 0 0 8.297-2.062v-8.547a42.12 42.12 0 0 1-8.328 3.172 40.846 40.846 0 0 1-8.75 1.312V36.719c7.385-1.135 12.818-3.172 16.297-6.109 3.49-2.927 5.234-6.927 5.234-12 0-5.5-1.849-9.839-5.547-13.016-3.698-3.177-9.026-5.01-15.984-5.5v-14.797zm-4.891 52.297v20.031c-3.771-.427-6.651-1.505-8.641-3.234-1.99-1.719-2.984-4.01-2.984-6.875 0-2.802.917-4.984 2.75-6.547 1.844-1.563 4.803-2.688 8.875-3.375m4.891-9.375V7.078c4.125.552 7.24 1.724 9.344 3.516 2.104 1.792 3.156 4.151 3.156 7.078 0 2.865-1.005 5.141-3.016 6.828-2 1.698-5.161 2.938-9.484 3.719m37.842 47.656h7.812c4.875-7.677 8.526-15.198 10.953-22.562 2.427-7.354 3.641-14.661 3.641-21.922 0-7.292-1.214-14.63-3.641-22.016-2.427-7.385-6.078-14.906-10.953-22.562h-7.812c4.323 7.458 7.552 14.875 9.687 22.25s3.203 14.818 3.203 22.328c0 7.521-1.068 14.943-3.203 22.266-2.135 7.333-5.364 14.739-9.687 22.218"/></g></g><path fill="none" stroke="#000" stroke-linejoin="round" d="M72 43.2h446.4m0 345.6V43.2M72 388.8h446.4m-446.4 0V43.2"/></g></g></svg>